<?xml version="1.0" standalone="no"?>
<!DOCTYPE svg PUBLIC "-//W3C//DTD SVG 20010904//EN"
 "http://www.w3.org/TR/2001/REC-SVG-20010904/DTD/svg10.dtd">
<svg version="1.0" xmlns="http://www.w3.org/2000/svg"
 width="500.000000pt" height="500.000000pt" viewBox="0 0 500.000000 500.000000"
 preserveAspectRatio="xMidYMid meet">
<metadata>
Created by potrace 1.14, written by Peter Selinger 2001-2017
</metadata>
<g transform="translate(0.000000,500.000000) scale(0.100000,-0.100000)"
fill="#000000" stroke="none">
<path d="M2410 4840 c-4 -3 -7 -25 -6 -50 3 -67 -7 -80 -59 -80 -58 0 -267
-28 -298 -39 -33 -13 -44 -3 -58 54 -6 28 -15 53 -18 57 -6 7 -62 -4 -101 -19
-8 -3 -22 -7 -30 -9 -8 -1 -22 -4 -30 -7 -8 -2 -28 -7 -45 -12 -63 -16 -65
-20 -49 -71 22 -74 20 -79 -43 -105 -67 -26 -207 -92 -226 -106 -6 -5 -31 -17
-54 -27 -38 -17 -43 -17 -57 -3 -9 9 -16 19 -16 24 -1 4 -11 21 -24 37 l-24
28 -63 -43 c-35 -24 -66 -46 -69 -49 -3 -3 -22 -16 -42 -30 -21 -14 -40 -31
-43 -39 -3 -7 11 -35 31 -62 l36 -49 -28 -23 c-49 -38 -136 -119 -196 -181
l-57 -59 -52 42 c-40 32 -55 39 -65 30 -8 -6 -49 -54 -91 -106 l-77 -95 54
-48 54 -47 -21 -34 c-11 -19 -40 -65 -63 -104 -24 -38 -61 -107 -82 -152 -22
-46 -43 -83 -49 -83 -5 0 -34 9 -64 19 -30 11 -57 16 -60 11 -3 -5 -19 -46
-36 -92 -17 -46 -35 -95 -41 -111 -5 -15 -7 -34 -4 -42 5 -15 14 -19 84 -45
30 -12 32 -16 27 -44 -6 -35 -8 -43 -18 -71 -3 -11 -9 -36 -11 -55 -3 -19 -10
-62 -16 -95 -6 -33 -13 -82 -15 -108 -5 -60 -11 -69 -43 -67 -15 1 -41 2 -58
1 l-31 -1 -2 -107 c-1 -60 -3 -120 -5 -136 -4 -35 6 -41 74 -41 l55 -1 3 -40
c7 -96 10 -131 15 -145 6 -19 27 -150 34 -208 4 -33 2 -42 -10 -42 -9 0 -28
-5 -44 -12 -15 -6 -31 -12 -35 -12 -15 -2 -18 -15 -7 -42 6 -16 13 -40 15 -53
3 -14 8 -29 12 -35 4 -6 7 -13 8 -16 0 -3 4 -14 8 -25 7 -18 16 -45 29 -86 5
-15 10 -15 63 2 45 15 59 17 66 7 4 -7 8 -16 8 -19 0 -10 113 -243 120 -249 3
-3 16 -22 28 -44 25 -43 25 -43 -40 -83 -16 -10 -28 -23 -28 -30 0 -9 124
-186 154 -220 2 -2 24 13 51 32 l49 34 70 -76 c39 -42 86 -90 103 -106 l33
-30 -27 -36 c-15 -20 -33 -42 -40 -49 -7 -7 -13 -16 -13 -20 0 -4 30 -29 67
-57 36 -27 71 -55 77 -60 6 -6 25 -20 42 -33 l31 -21 27 29 c14 17 26 33 26
38 0 12 39 32 45 23 10 -16 138 -97 225 -141 117 -60 111 -52 89 -110 -10 -28
-19 -54 -19 -59 0 -9 90 -47 103 -43 4 1 7 -3 7 -8 0 -5 3 -9 8 -8 9 3 103
-32 120 -45 9 -7 19 6 38 50 l26 60 97 -24 c122 -31 131 -34 161 -38 14 -2 41
-6 60 -9 66 -10 90 -18 85 -26 -10 -16 -15 -109 -6 -114 8 -5 57 -10 214 -21
44 -3 49 -1 58 22 5 13 9 44 9 69 l0 44 83 1 c45 0 96 3 112 5 17 3 48 6 70 6
22 0 45 3 50 8 6 4 19 6 30 4 10 -1 24 0 30 4 15 11 54 8 56 -3 0 -5 4 -14 9
-20 4 -5 10 -27 14 -48 7 -39 4 -38 74 -23 12 3 26 7 30 10 5 3 19 7 33 10 13
3 35 8 49 11 14 4 37 9 53 12 37 7 41 16 26 73 -13 51 -8 68 22 74 44 9 295
123 317 143 21 20 29 16 63 -34 18 -27 34 -50 36 -52 1 -2 34 17 73 42 38 26
72 47 76 47 3 0 12 6 19 12 34 31 45 38 45 31 0 -4 5 -2 11 4 11 11 -9 60 -38
91 -7 7 -13 17 -13 22 0 4 32 33 70 65 39 31 107 92 152 136 45 43 84 79 88
79 3 0 15 -8 26 -18 10 -9 31 -25 46 -35 l27 -17 61 77 c65 83 78 99 98 125
11 13 5 21 -37 53 l-49 38 25 41 c14 23 30 43 34 44 5 2 9 7 9 12 0 4 17 37
38 71 21 35 51 90 66 121 15 32 31 60 36 63 5 3 25 -1 45 -9 19 -8 35 -12 35
-8 0 3 5 1 12 -6 23 -23 41 -11 47 33 0 3 8 19 16 35 8 16 16 33 16 37 1 5 6
19 11 33 6 14 17 44 24 68 l13 43 -37 16 c-20 8 -43 16 -50 17 -28 5 -31 22
-16 81 9 33 18 68 20 78 2 9 6 27 9 40 5 21 9 38 21 112 3 17 7 49 9 73 1 24
6 46 10 50 4 4 28 8 53 8 26 1 54 2 62 3 13 1 15 24 15 141 l0 140 -62 0 -63
0 0 58 c-1 54 -12 154 -26 232 -4 19 -7 45 -8 58 0 12 -3 22 -6 22 -3 0 -6 9
-7 21 -1 15 8 25 33 35 19 8 39 12 43 10 4 -3 17 4 29 14 20 19 20 22 6 55 -8
19 -14 36 -13 37 0 2 -2 10 -5 18 -3 8 -14 48 -26 88 -12 41 -26 72 -34 72 -7
0 -34 -7 -60 -16 -26 -9 -51 -13 -55 -8 -4 5 -20 41 -36 79 -35 87 -113 242
-137 274 -18 24 -18 24 9 42 16 9 41 28 57 41 l29 25 -19 31 c-10 18 -22 32
-26 32 -4 0 -8 4 -8 10 0 9 -31 53 -90 129 l-18 23 -49 -33 c-26 -19 -51 -38
-54 -42 -3 -4 -19 9 -35 30 -32 43 -128 146 -163 177 -82 73 -91 84 -78 98 52
53 83 118 57 118 -5 0 -53 33 -106 74 l-97 74 -44 -54 c-25 -30 -47 -53 -51
-51 -4 2 -42 25 -84 51 -43 25 -82 46 -87 46 -5 0 -11 3 -13 8 -1 4 -39 24
-83 43 -87 40 -92 48 -64 114 11 26 13 54 4 63 -5 6 -201 73 -227 78 -21 4
-28 1 -28 -10 0 -9 -5 -16 -11 -16 -5 0 -8 -4 -4 -10 3 -5 -1 -25 -9 -45 -17
-40 -14 -39 -138 -10 -13 3 -45 10 -73 15 -49 9 -63 11 -172 25 l-52 7 -3 66
-3 67 -128 0 c-71 0 -132 -2 -137 -5z m315 -184 c65 -7 186 -26 205 -33 8 -3
26 -7 40 -9 22 -3 37 -6 85 -20 6 -2 19 -5 30 -7 106 -24 356 -130 494 -209
232 -134 442 -314 611 -524 50 -62 110 -143 110 -149 0 -3 18 -33 40 -65 44
-64 160 -294 160 -316 0 -8 4 -14 8 -14 5 0 9 -6 9 -12 1 -7 12 -44 26 -83 33
-93 62 -198 59 -209 -1 -4 2 -14 8 -20 5 -7 7 -15 5 -18 -3 -3 -1 -16 4 -30 5
-13 12 -47 15 -74 3 -27 10 -78 16 -114 9 -69 7 -478 -4 -520 -4 -14 -9 -45
-12 -70 -3 -25 -7 -53 -10 -62 -6 -22 -15 -58 -19 -83 -14 -84 -107 -342 -157
-439 -12 -22 -21 -44 -20 -48 1 -5 -2 -8 -6 -8 -4 0 -14 -16 -21 -35 -7 -19
-17 -35 -22 -35 -5 0 -9 -5 -9 -11 0 -9 -89 -154 -117 -189 -158 -200 -266
-312 -419 -433 -101 -79 -203 -145 -314 -203 -30 -16 -58 -32 -61 -37 -3 -5
-9 -8 -13 -8 -3 1 -23 -6 -44 -15 -91 -39 -205 -84 -213 -84 -4 0 -20 -5 -36
-12 -15 -6 -41 -13 -58 -15 -16 -3 -32 -9 -33 -14 -2 -5 -8 -7 -13 -3 -5 3
-15 2 -21 -3 -7 -4 -22 -8 -33 -9 -11 -1 -31 -5 -45 -8 -49 -12 -86 -18 -116
-21 -17 -1 -37 -5 -43 -9 -6 -4 -102 -10 -214 -13 -177 -4 -303 2 -417 21 -79
14 -97 17 -120 20 -14 2 -25 5 -25 6 0 2 -9 4 -20 6 -24 4 -45 9 -65 17 -8 3
-48 15 -88 27 -40 11 -85 26 -100 32 -15 6 -32 12 -38 13 -53 12 -413 206
-434 235 -3 3 -12 9 -20 12 -31 12 -198 155 -290 248 -99 100 -116 119 -165
185 -16 22 -33 42 -36 45 -7 6 -74 105 -115 170 -28 46 -140 259 -142 273 -1
4 -9 23 -17 43 -8 20 -15 40 -15 44 0 4 -7 24 -15 44 -8 20 -15 38 -16 41 0 3
-6 23 -14 46 -8 22 -14 43 -12 47 1 4 -4 21 -10 37 -15 35 -53 236 -60 315
-11 125 -4 444 12 525 3 17 12 68 21 115 8 47 24 115 35 152 12 37 22 73 23
80 2 7 6 20 9 28 3 8 15 42 27 75 12 33 26 65 32 72 6 7 7 13 3 13 -4 0 -3 6
3 13 6 6 11 15 12 19 1 9 47 106 60 128 4 8 26 47 48 85 38 67 151 230 196
283 96 113 227 243 311 306 28 21 52 41 55 45 7 9 131 90 211 139 76 46 240
127 252 124 4 -1 7 2 7 6 0 5 6 9 13 10 10 0 212 70 212 73 0 0 7 2 15 4 8 2
26 6 40 9 14 3 36 8 50 11 84 22 195 41 294 50 33 3 61 7 62 8 4 4 325 -2 379
-7z"/>
<path d="M2394 4403 c2 -71 5 -134 5 -141 1 -8 11 -12 29 -10 26 3 27 5 25 58
0 30 -2 92 -3 138 l-3 82 -29 0 -29 0 5 -127z"/>
<path d="M2143 4513 c-7 -2 -13 -16 -13 -29 0 -19 5 -24 25 -24 30 0 43 24 25
45 -13 16 -17 17 -37 8z"/>
<path d="M2790 4464 c-5 -13 -15 -24 -23 -24 -18 0 -19 -37 0 -44 9 -4 13 -13
9 -22 -3 -9 -9 -38 -12 -65 -7 -57 12 -89 53 -89 30 0 41 27 18 44 -15 11 -17
22 -11 70 6 43 11 56 22 52 8 -3 18 4 25 15 9 17 7 21 -11 26 -14 4 -19 11
-15 23 11 36 -42 49 -55 14z"/>
<path d="M2529 4448 c-1 -7 -3 -24 -4 -38 -2 -14 -5 -54 -7 -90 -3 -64 -3 -65
25 -68 17 -2 27 2 28 10 1 7 2 38 3 68 3 67 9 80 42 80 27 0 26 2 28 -95 1
-68 2 -70 26 -70 25 0 25 2 28 91 3 67 0 93 -10 102 -20 16 -68 23 -89 12 -11
-7 -20 -7 -24 0 -9 14 -45 12 -46 -2z"/>
<path d="M2158 4433 c-10 -2 -18 -8 -18 -11 0 -24 33 -188 38 -193 4 -4 17 -3
29 2 16 6 21 14 17 31 -2 13 -6 37 -9 53 -17 100 -24 125 -33 124 -4 -1 -15
-3 -24 -6z"/>
<path d="M2000 4403 c-8 -3 -21 -11 -29 -17 -7 -6 -26 -9 -42 -8 -36 4 -37 -5
-5 -118 21 -77 26 -85 47 -82 31 3 32 4 19 53 -7 24 -14 52 -15 61 -2 10 -6
22 -10 27 -3 5 2 17 11 25 31 31 45 18 73 -71 20 -67 24 -71 44 -64 25 10 25
25 1 108 -22 77 -50 102 -94 86z"/>
<path d="M2950 4384 c-32 -22 -38 -31 -49 -71 -13 -46 0 -84 39 -110 36 -25
70 -29 100 -13 30 16 14 40 -26 38 -38 -1 -75 25 -58 42 6 6 28 4 63 -7 61
-17 71 -12 71 44 0 68 -85 115 -140 77z m79 -43 c8 -5 11 -16 8 -25 -5 -12
-12 -14 -32 -6 -14 5 -25 7 -25 4 0 -3 -5 -2 -10 1 -8 5 -7 11 1 21 13 16 37
18 58 5z"/>
<path d="M3131 4258 c-18 -46 -35 -88 -37 -94 -3 -6 7 -16 20 -22 24 -11 26
-9 45 32 10 25 22 53 25 64 8 25 32 35 56 22 15 -8 19 -5 25 17 7 28 -9 47
-33 38 -8 -3 -20 2 -28 10 -28 27 -41 16 -73 -67z"/>
<path d="M1753 4320 c-12 -5 -26 -17 -32 -28 -7 -14 -18 -18 -39 -14 -22 3
-36 -2 -53 -19 -13 -13 -31 -24 -41 -24 -39 -3 -39 -20 2 -108 40 -86 51 -96
79 -78 12 8 10 20 -16 77 -32 69 -33 88 -5 99 22 8 47 -23 69 -86 18 -51 39
-62 62 -35 10 11 8 23 -9 56 -37 73 -41 88 -24 104 23 24 43 8 75 -60 29 -64
46 -77 68 -50 10 12 6 28 -19 78 -48 97 -64 109 -117 88z"/>
<path d="M3318 4253 c-20 -5 -31 -30 -16 -39 6 -4 27 -7 47 -8 29 -1 37 -5 39
-23 4 -27 5 -27 -44 -9 -65 22 -104 3 -104 -53 0 -31 43 -76 65 -68 6 3 23 -6
39 -18 l28 -23 33 67 c50 101 51 107 16 141 -16 17 -35 30 -43 31 -7 0 -20 2
-28 3 -8 1 -22 1 -32 -1z m36 -122 c10 -16 -5 -41 -24 -41 -21 0 -44 25 -35
40 8 12 52 13 59 1z"/>
<path d="M1450 4155 c-10 -11 -5 -23 22 -62 18 -26 35 -50 38 -53 18 -18 1
-60 -26 -60 -7 0 -32 27 -55 60 -23 33 -46 60 -51 60 -18 0 -51 -22 -42 -29 5
-3 22 -26 38 -51 44 -69 67 -90 98 -90 28 0 68 30 68 51 0 5 4 7 10 4 5 -3 19
0 30 8 19 13 17 16 -36 95 -55 82 -71 94 -94 67z"/>
<path d="M2365 4132 c-3 -3 -22 -6 -42 -8 -21 -1 -58 -6 -83 -9 -25 -4 -54 -8
-65 -10 -11 -1 -27 -5 -35 -8 -8 -2 -42 -12 -75 -20 -34 -9 -74 -21 -90 -28
-17 -7 -32 -13 -35 -14 -89 -22 -314 -140 -401 -209 -14 -12 -38 -30 -55 -41
-49 -34 -266 -258 -315 -326 -26 -35 -59 -86 -74 -114 -16 -27 -34 -57 -40
-65 -16 -20 -112 -246 -121 -285 -4 -16 -9 -34 -12 -40 -4 -5 -7 -16 -8 -25 0
-8 -7 -35 -14 -60 -7 -25 -14 -56 -16 -70 -1 -14 -6 -45 -11 -70 -10 -60 -10
-391 1 -460 4 -30 10 -64 11 -75 2 -11 4 -21 5 -22 2 -2 3 -11 4 -20 3 -25 23
-95 49 -173 11 -36 20 -68 19 -72 -1 -5 2 -8 6 -8 5 0 9 -6 9 -12 0 -31 144
-294 188 -345 5 -6 21 -26 35 -44 14 -18 31 -38 38 -45 6 -7 12 -15 12 -18 0
-8 171 -176 215 -211 21 -16 44 -36 51 -43 7 -6 15 -12 18 -12 2 0 37 -22 78
-48 85 -57 284 -155 338 -167 13 -3 157 -47 170 -52 8 -3 26 -7 40 -9 14 -2
36 -6 49 -9 70 -18 423 -26 521 -12 98 14 245 51 345 87 57 20 218 96 260 123
243 151 387 286 539 505 68 97 185 340 200 415 3 12 10 38 16 57 15 49 40 167
47 220 10 80 5 485 -7 485 -1 0 -3 9 -5 19 -16 82 -39 173 -47 184 -6 6 -8 12
-4 12 3 0 -1 17 -9 38 -9 20 -16 39 -15 42 1 10 -64 156 -93 205 -15 28 -31
58 -34 68 -3 9 -9 17 -13 17 -4 0 -10 8 -14 18 -5 17 -26 52 -36 62 -3 3 -25
32 -49 65 -48 65 -211 231 -276 281 -22 17 -78 56 -125 87 -47 32 -90 61 -97
67 -7 5 -16 10 -20 10 -5 0 -33 13 -63 28 -64 33 -152 67 -162 64 -5 -1 -8 3
-8 10 0 6 -3 8 -6 5 -4 -3 -15 -2 -26 4 -20 11 -154 47 -203 55 -61 10 -91 14
-130 19 -58 7 -324 12 -330 7z m395 -43 c30 -5 69 -13 85 -16 46 -8 60 -11 60
-13 0 -2 12 -5 50 -13 11 -2 27 -7 35 -10 8 -4 42 -16 75 -28 83 -30 222 -96
272 -130 23 -16 44 -29 48 -29 8 0 151 -108 186 -140 76 -70 108 -102 146
-146 23 -27 52 -60 63 -74 84 -97 209 -328 256 -471 29 -88 30 -90 38 -127 3
-13 8 -33 12 -44 7 -22 7 -25 23 -143 18 -132 12 -465 -8 -465 -4 0 -6 -13 -5
-30 1 -16 -1 -30 -4 -30 -4 0 -7 -10 -8 -22 -1 -22 -10 -70 -15 -75 -1 -2 -2
-6 -3 -10 -2 -6 -23 -76 -41 -133 -14 -45 -97 -214 -109 -222 -6 -4 -8 -8 -3
-8 14 0 -97 -159 -187 -268 -26 -32 -131 -136 -177 -176 -67 -58 -246 -173
-341 -219 -53 -26 -99 -47 -102 -47 -3 0 -15 -4 -28 -9 -13 -5 -26 -9 -31 -10
-4 0 -20 -7 -36 -15 -16 -9 -31 -13 -34 -10 -3 3 -14 1 -25 -5 -24 -13 -53
-19 -212 -46 -73 -13 -137 -16 -275 -12 -99 3 -193 7 -210 11 -16 3 -46 9 -65
13 -19 3 -39 7 -45 9 -5 2 -21 5 -33 8 -192 43 -460 176 -633 316 -43 34 -174
163 -215 211 -22 25 -120 160 -141 194 -61 96 -152 300 -168 375 -2 8 -4 16
-5 18 -2 1 -3 5 -5 10 -1 4 -5 19 -9 34 -27 96 -51 293 -50 413 2 127 22 295
46 379 6 22 11 45 9 50 -1 4 3 13 8 20 5 6 12 23 14 36 4 22 28 84 60 160 5
14 10 28 9 33 -1 4 3 7 9 7 5 0 7 5 4 10 -3 6 -1 10 4 10 6 0 11 5 11 11 0 14
81 153 92 157 4 2 8 10 8 18 0 8 4 14 8 14 5 0 15 12 23 28 8 15 23 37 34 48
11 12 35 40 54 63 43 54 105 116 165 166 27 22 53 45 60 50 66 58 327 210 340
198 3 -4 6 -1 6 5 0 8 158 69 200 77 3 1 48 11 100 23 52 13 129 27 170 32 89
11 362 4 440 -11z"/>
<path d="M2270 3975 c-7 -9 -10 -27 -7 -43 5 -25 2 -30 -27 -40 -28 -10 -114
-82 -108 -89 1 -2 2 -4 1 -5 0 -2 -2 -14 -5 -28 -3 -22 -2 -23 9 -9 7 9 30 28
51 43 37 25 40 25 52 8 29 -42 39 -230 15 -267 -7 -9 -7 -16 -2 -42 2 -11 44
38 60 70 l15 28 14 -28 c18 -34 54 -64 65 -54 4 4 2 21 -4 37 -31 74 -42 179
-26 239 3 11 6 25 6 32 2 20 70 -8 97 -40 13 -16 24 -24 24 -19 0 5 11 14 25
20 15 7 25 20 25 32 0 11 5 20 10 20 6 0 10 -4 10 -9 0 -4 18 -3 40 2 41 11
44 20 10 22 -11 1 -20 -3 -20 -8 0 -5 -10 -7 -22 -3 -18 4 -29 -2 -49 -26
l-26 -32 -13 25 c-19 35 -59 67 -108 85 -23 9 -41 22 -40 28 1 6 -1 23 -5 39
-8 31 -46 38 -67 12z"/>
<path d="M2700 3979 c0 -5 4 -8 9 -5 31 20 55 -30 26 -54 -23 -19 -45 -4 -45
31 0 18 -3 29 -7 26 -3 -4 -6 -20 -5 -37 0 -20 -4 -30 -14 -30 -8 0 -14 -3
-14 -8 0 -4 23 -7 50 -6 28 1 50 -3 50 -8 0 -6 6 -8 13 -5 8 3 29 -8 48 -24
19 -16 39 -29 44 -29 15 0 -44 47 -83 65 -27 13 -31 19 -21 31 19 23 3 64 -26
64 -14 0 -25 -5 -25 -11z"/>
<path d="M2625 3890 c3 -5 8 -10 11 -10 2 0 4 5 4 10 0 6 -5 10 -11 10 -5 0
-7 -4 -4 -10z"/>
<path d="M2579 3873 c-13 -15 -12 -15 9 -4 23 12 28 21 13 21 -5 0 -15 -7 -22
-17z"/>
<path d="M1854 3869 c-3 -6 -3 -13 0 -16 3 -4 6 -1 6 6 0 8 5 9 19 2 11 -6 18
-20 17 -38 -1 -22 -5 -28 -23 -27 -13 1 -23 -3 -23 -8 0 -5 -16 -28 -35 -51
-19 -22 -35 -47 -35 -54 0 -7 -5 -13 -11 -13 -6 0 -8 -7 -5 -16 4 -9 2 -22 -3
-28 -5 -6 -10 -19 -12 -28 -4 -16 -7 -16 -29 -5 -33 17 -114 13 -144 -7 -31
-20 -36 -20 -36 -1 0 15 -27 33 -47 29 -7 -1 -17 -2 -22 -3 -19 -2 -19 -53 1
-73 19 -19 19 -20 -3 -65 -27 -56 -31 -163 -6 -163 7 0 12 11 11 28 -1 35 25
92 44 92 20 0 119 -104 144 -153 23 -44 25 -48 27 -72 0 -8 7 -12 16 -9 18 7
20 75 4 106 -10 18 -9 20 7 13 62 -24 106 -23 112 3 1 8 -2 11 -7 8 -5 -3 -31
9 -57 27 -55 38 -137 149 -132 181 4 24 55 39 106 30 22 -3 32 -2 28 5 -4 6 0
24 9 41 9 17 15 36 14 43 -4 30 3 45 35 80 34 37 98 72 110 60 3 -4 6 -1 6 5
0 7 -7 12 -15 12 -9 0 -15 9 -15 23 0 26 -44 55 -56 36z"/>
<path d="M3110 3859 c-6 -11 -9 -23 -6 -28 3 -5 -26 -11 -64 -13 -50 -2 -77
-9 -97 -24 -33 -25 -44 -51 -17 -39 11 4 40 10 66 12 l47 5 -1 -31 c-1 -18 -5
-34 -10 -37 -4 -3 -6 -9 -3 -14 3 -5 -1 -25 -9 -45 -8 -19 -13 -35 -11 -35 10
0 -59 -102 -76 -113 -26 -16 -24 -24 6 -29 14 -3 25 -1 25 4 0 5 4 7 9 4 5 -3
16 5 25 19 20 30 36 33 31 4 -5 -24 23 -99 36 -99 11 0 11 0 14 65 1 28 3 50
4 50 2 0 4 10 7 23 8 45 76 162 94 162 11 0 48 -64 56 -96 5 -19 9 -22 19 -14
26 21 -29 163 -67 176 -19 6 -24 29 -9 38 12 8 11 54 -3 64 -21 16 -56 11 -66
-9z"/>
<path d="M1830 3825 c0 -8 4 -15 8 -15 5 0 9 7 9 15 0 8 -4 15 -9 15 -4 0 -8
-7 -8 -15z"/>
<path d="M2766 3816 c-8 -14 -12 -27 -7 -30 4 -3 13 6 19 20 l12 25 39 -23
c22 -12 38 -25 36 -28 -2 -3 2 -16 9 -29 11 -20 14 -21 19 -6 9 21 -9 55 -28
55 -7 0 -20 6 -27 14 -28 27 -54 28 -72 2z"/>
<path d="M2644 3806 c3 -16 8 -31 11 -35 3 -3 4 7 1 23 -3 16 -8 31 -11 35 -3
3 -4 -7 -1 -23z"/>
<path d="M1970 3799 c0 -5 5 -7 10 -4 6 3 10 8 10 11 0 2 -4 4 -10 4 -5 0 -10
-5 -10 -11z"/>
<path d="M2005 3800 c3 -5 13 -10 21 -10 8 0 12 5 9 10 -3 6 -13 10 -21 10 -8
0 -12 -4 -9 -10z"/>
<path d="M2057 3784 c7 -3 10 -11 7 -17 -2 -7 7 -17 21 -24 20 -9 25 -8 25 2
0 13 -42 46 -57 44 -4 0 -3 -3 4 -5z"/>
<path d="M1981 3770 c-14 -10 -19 -37 -9 -51 8 -11 9 -11 5 3 -6 18 14 40 33
36 7 -2 14 2 16 7 4 11 -31 15 -45 5z"/>
<path d="M2749 3768 c-6 -20 -6 -39 0 -42 4 -3 7 6 7 20 0 20 -4 32 -7 22z"/>
<path d="M2659 3758 c-5 -19 -8 -50 -4 -46 7 7 15 48 9 48 -2 0 -4 -1 -5 -2z"/>
<path d="M1830 3700 c-8 -5 -12 -11 -9 -14 2 -3 11 -1 19 4 8 5 12 11 9 14 -2
3 -11 1 -19 -4z"/>
<path d="M1987 3647 c17 -57 30 -80 19 -32 -4 17 -8 40 -9 52 -1 13 -7 25 -14
27 -8 4 -7 -10 4 -47z"/>
<path d="M2647 3683 c-10 -9 -9 -23 1 -23 5 0 9 7 9 15 0 17 -1 18 -10 8z"/>
<path d="M2689 3678 c0 -7 -2 -20 -4 -28 -2 -8 -6 -24 -9 -35 -2 -11 -7 -29
-11 -40 -3 -11 1 -6 11 10 9 17 20 32 23 35 9 8 9 70 -1 70 -4 0 -8 -6 -9 -12z"/>
<path d="M2734 3645 c0 -24 3 -42 5 -39 9 9 10 84 2 84 -4 0 -8 -20 -7 -45z"/>
<path d="M1865 3660 c3 -5 11 -10 16 -10 6 0 7 5 4 10 -3 6 -11 10 -16 10 -6
0 -7 -4 -4 -10z"/>
<path d="M2640 3640 c0 -5 5 -10 10 -10 6 0 10 5 10 10 0 6 -4 10 -10 10 -5 0
-10 -4 -10 -10z"/>
<path d="M1890 3637 c0 -14 24 -57 32 -57 5 0 1 12 -9 28 -22 35 -23 36 -23
29z"/>
<path d="M2637 3613 c-10 -9 -9 -23 1 -23 5 0 9 7 9 15 0 17 -1 18 -10 8z"/>
<path d="M3488 3598 c-19 -19 -10 -26 9 -7 17 17 56 1 50 -22 -3 -10 -1 -19 4
-19 13 0 11 36 -3 47 -25 19 -43 19 -60 1z"/>
<path d="M2700 3591 c0 -24 55 -89 66 -78 4 4 3 12 -3 18 -6 6 -9 18 -6 25 3
8 0 14 -6 14 -6 0 -10 -3 -8 -7 1 -5 -2 -8 -8 -8 -5 0 -9 3 -7 8 1 4 -3 7 -9
7 -6 0 -9 7 -6 15 4 8 2 17 -3 20 -6 4 -10 -3 -10 -14z"/>
<path d="M3315 3599 c-4 -6 -13 -8 -21 -5 -8 3 -14 1 -14 -5 0 -6 -4 -7 -10
-4 -5 3 -10 1 -10 -4 0 -6 18 -11 39 -11 81 0 115 -35 75 -75 -9 -9 -14 -19
-10 -22 8 -9 13 -3 31 40 l16 38 -38 16 c-21 9 -41 16 -45 15 -4 -1 -5 5 -2
13 7 17 -2 20 -11 4z"/>
<path d="M3340 3598 c0 -4 9 -8 20 -8 11 0 20 4 20 8 0 4 -9 8 -20 8 -11 0
-20 -4 -20 -8z"/>
<path d="M3402 3586 c7 -8 16 -12 19 -10 4 2 18 -5 31 -16 24 -18 38 -18 38 2
0 5 -6 8 -12 6 -7 -1 -27 6 -45 15 -39 21 -48 22 -31 3z"/>
<path d="M1966 3581 c-3 -5 -1 -23 5 -40 10 -29 7 -96 -5 -108 -3 -4 -7 3 -7
15 -1 12 -3 27 -4 32 -1 6 -3 19 -4 30 0 11 -5 20 -9 20 -4 0 -8 -9 -9 -20 -1
-11 2 -20 6 -20 4 0 7 -19 7 -42 -1 -28 4 -43 14 -46 8 -3 12 -1 8 3 -4 4 -1
17 7 29 8 11 15 33 15 48 0 16 5 28 10 28 6 0 10 -4 10 -10 0 -5 5 -10 10 -10
6 0 -3 20 -19 44 -17 24 -27 46 -24 50 4 3 4 6 0 6 -3 0 -8 -4 -11 -9z"/>
<path d="M2015 3580 c-3 -5 -1 -10 4 -10 6 0 11 5 11 10 0 6 -2 10 -4 10 -3 0
-8 -4 -11 -10z"/>
<path d="M2625 3570 c-3 -5 -1 -10 4 -10 6 0 11 5 11 10 0 6 -2 10 -4 10 -3 0
-8 -4 -11 -10z"/>
<path d="M1923 3555 c0 -8 4 -12 9 -9 4 3 8 9 8 15 0 5 -4 9 -8 9 -5 0 -9 -7
-9 -15z"/>
<path d="M2605 3540 c-9 -15 11 -20 29 -7 16 12 16 13 -3 14 -11 1 -23 -2 -26
-7z"/>
<path d="M3499 3522 c5 -10 17 -24 25 -31 9 -8 13 -18 9 -24 -4 -6 -1 -7 6 -3
9 6 8 12 -4 26 -11 12 -13 20 -5 25 15 9 2 25 -21 25 -16 0 -18 -3 -10 -18z"/>
<path d="M2050 3510 c6 -11 12 -20 14 -20 2 0 2 9 -1 20 -3 11 -9 20 -15 20
-5 0 -4 -9 2 -20z"/>
<path d="M2040 3480 c0 -5 5 -10 11 -10 5 0 7 5 4 10 -3 6 -8 10 -11 10 -2 0
-4 -4 -4 -10z"/>
<path d="M2077 3476 c-3 -8 -2 -18 3 -21 13 -8 24 15 12 27 -6 6 -11 4 -15 -6z"/>
<path d="M2425 3480 c-2 -3 -21 -7 -42 -8 -50 -4 -175 -32 -189 -43 -6 -5 -19
-10 -30 -12 -10 -2 -37 -12 -59 -22 -22 -10 -43 -18 -47 -17 -5 1 -8 -2 -8 -7
0 -5 -10 -13 -22 -17 -77 -24 -268 -196 -343 -309 -46 -69 -93 -161 -100 -194
-2 -13 -8 -28 -13 -35 -11 -13 -39 -130 -48 -196 -12 -92 -7 -212 12 -314 6
-31 34 -129 43 -151 64 -148 126 -244 222 -341 190 -194 430 -295 704 -297 84
0 228 18 250 31 6 4 15 7 20 9 45 10 56 13 72 21 10 6 23 11 28 12 22 4 150
73 203 109 86 59 272 262 272 296 0 4 8 19 18 33 19 27 71 145 76 172 2 8 6
22 9 30 34 80 46 317 21 435 -8 39 -16 79 -18 90 -2 11 -4 20 -5 20 -2 0 -4 7
-6 15 -8 44 -72 176 -117 246 -43 65 -154 187 -218 238 -64 52 -257 151 -310
159 -8 2 -19 5 -25 9 -36 22 -340 54 -350 38z m140 -30 c0 -1 20 -3 45 -5 25
-1 45 -3 45 -5 0 -1 9 -3 20 -5 71 -10 190 -48 255 -81 124 -63 264 -179 339
-282 88 -120 164 -292 176 -394 2 -10 4 -19 5 -20 4 -5 11 -101 12 -158 0 -60
-7 -141 -16 -180 -4 -14 -8 -36 -11 -50 -14 -72 -62 -190 -105 -255 -15 -22
-29 -45 -31 -52 -14 -39 -249 -274 -249 -248 0 3 -10 -3 -22 -15 -12 -11 -28
-20 -35 -20 -7 0 -13 -4 -13 -10 0 -5 -7 -10 -15 -10 -8 0 -15 -5 -15 -12 0
-6 -3 -9 -6 -5 -4 3 -20 -1 -37 -10 -38 -19 -163 -63 -197 -69 -74 -13 -124
-17 -205 -17 -81 0 -176 7 -182 13 -2 1 -11 3 -20 4 -74 8 -249 83 -345 149
-64 44 -189 167 -236 233 -50 69 -128 224 -123 247 0 4 -3 7 -7 7 -4 0 -9 8
-10 18 -2 24 -10 67 -12 67 -11 0 -27 177 -23 250 4 73 9 120 13 120 1 0 3 14
4 30 4 43 66 224 83 241 8 8 12 14 9 14 -11 0 66 113 118 175 81 96 182 175
291 229 136 67 208 88 345 102 30 3 56 6 57 7 2 3 98 -1 98 -3z"/>
<path d="M2310 3350 c-182 -39 -313 -110 -440 -240 -87 -88 -102 -107 -143
-181 -105 -189 -136 -394 -93 -613 6 -30 41 -128 62 -173 54 -115 175 -260
275 -328 24 -16 46 -32 49 -35 18 -20 165 -86 210 -94 3 -1 11 -5 18 -9 6 -5
12 -6 12 -3 0 2 15 0 33 -5 17 -5 48 -12 67 -16 43 -8 260 -7 316 1 45 7 211
72 264 104 19 12 42 25 50 29 26 12 103 76 153 128 156 162 239 368 239 592
-1 61 -5 120 -11 131 -6 11 -8 22 -4 25 6 7 -15 78 -49 167 -28 73 -113 202
-174 266 -112 116 -299 224 -436 249 -12 3 -34 8 -48 11 -62 16 -266 12 -350
-6z m415 -50 c298 -95 507 -309 581 -595 17 -68 28 -297 15 -320 -3 -5 -7 -18
-8 -27 -5 -33 -10 -53 -16 -68 -3 -8 -11 -32 -17 -52 -13 -43 -48 -112 -92
-180 l-30 -48 -30 30 c-16 17 -36 30 -44 30 -19 0 -18 13 7 54 23 40 25 41 58
22 24 -13 71 -10 71 5 0 14 -43 39 -68 39 -15 0 -22 5 -20 13 3 6 13 36 22 65
10 30 22 49 28 46 22 -14 77 -21 89 -13 21 14 -25 49 -63 49 -29 0 -29 1 -24
38 3 20 5 45 6 56 0 15 5 17 28 13 15 -3 41 0 57 7 l30 13 -24 12 c-13 7 -38
13 -56 13 -29 0 -34 4 -37 29 -3 16 -2 29 1 30 3 0 23 2 44 4 53 4 69 21 31
35 -16 6 -41 9 -55 6 -23 -4 -27 -1 -38 33 -14 49 -15 47 17 45 15 0 35 4 45
10 20 13 23 35 5 37 -28 3 -64 -3 -74 -12 -8 -7 -18 2 -33 26 -19 33 -21 62
-2 51 9 -6 64 44 57 51 -8 9 -76 -7 -76 -17 0 -19 -16 -10 -33 20 -17 28 -17
30 3 50 11 11 20 24 20 28 0 17 -13 22 -27 11 -7 -6 -13 -8 -13 -3 0 4 -6 0
-13 -10 -12 -16 -14 -16 -32 4 -14 16 -16 23 -7 32 20 20 13 30 -18 23 -26 -6
-32 -2 -57 34 -31 44 -60 61 -113 68 -19 2 -41 6 -47 8 -16 5 -16 -7 -1 -39
13 -29 81 -66 122 -66 15 0 36 -8 47 -19 17 -16 18 -19 4 -31 -8 -7 -15 -16
-15 -21 0 -13 34 -11 47 2 8 8 14 5 23 -12 11 -19 10 -24 -5 -35 -11 -8 -15
-20 -11 -30 6 -15 8 -15 32 1 14 9 27 15 29 13 6 -7 25 -47 25 -52 0 -3 -6 -6
-14 -6 -22 0 -41 -29 -28 -42 8 -8 18 -7 36 5 24 16 24 15 40 -17 21 -44 21
-43 -18 -50 -19 -4 -39 -13 -46 -21 -10 -12 -7 -15 15 -21 14 -4 38 -2 51 5
23 10 25 9 30 -19 8 -37 4 -45 -20 -42 -24 5 -66 -6 -66 -17 0 -13 43 -28 73
-24 24 3 27 1 27 -26 0 -29 -1 -30 -46 -28 -57 2 -78 -21 -35 -39 15 -7 40
-10 54 -7 25 5 26 4 17 -26 -10 -34 -10 -36 -10 -51 0 -6 -20 -8 -53 -4 -44 5
-55 3 -60 -9 -6 -16 31 -31 78 -32 23 0 22 -10 -6 -74 -18 -40 -21 -43 -37
-29 -20 18 -79 31 -86 19 -8 -12 35 -49 66 -56 l28 -7 -20 -28 c-11 -15 -20
-33 -20 -40 0 -6 -15 -1 -32 12 -35 25 -73 35 -81 21 -8 -12 14 -36 48 -53 17
-8 31 -15 33 -16 2 -1 -6 -13 -18 -27 l-22 -25 -56 54 c-46 45 -63 54 -87 52
-16 -1 -36 -6 -42 -11 -12 -9 -69 19 -121 61 l-24 18 104 63 c57 34 126 83
153 109 28 26 69 64 93 84 39 34 43 43 19 39 -5 -1 -23 -4 -40 -7 -18 -2 -41
-6 -52 -9 -11 -2 -38 -6 -60 -10 -22 -3 -69 -21 -105 -39 -120 -61 -175 -91
-180 -97 -3 -3 -15 -11 -28 -18 -18 -10 -25 -9 -36 2 -7 7 -47 24 -87 36 -154
49 -195 66 -216 89 -13 15 -37 26 -60 29 -21 2 -44 6 -52 9 -13 4 -13 2 0 -13
8 -10 21 -30 29 -45 7 -16 20 -28 28 -28 43 0 248 -163 225 -179 -5 -3 -31
-19 -56 -36 -26 -16 -47 -34 -47 -38 0 -4 9 -26 20 -47 30 -59 44 -58 184 20
104 58 130 64 164 37 6 -5 12 -7 12 -4 0 13 123 -53 137 -73 13 -19 12 -22 -9
-40 -20 -17 -60 -30 -138 -46 -31 -6 -170 -6 -230 1 -64 7 -146 34 -165 55
-14 16 -14 19 0 33 30 30 12 65 -32 61 -38 -3 -41 -4 -55 -17 -7 -6 -33 -29
-57 -51 l-44 -39 -18 24 c-23 29 -24 39 -4 39 18 0 76 50 70 60 -10 15 -56 7
-79 -15 l-24 -22 -21 28 c-21 28 -28 60 -13 58 31 -5 89 32 78 50 -8 13 -51 7
-80 -12 l-26 -18 -20 46 c-23 54 -25 77 -7 74 27 -3 63 2 77 11 26 17 -9 32
-62 26 -36 -4 -48 -2 -48 8 0 8 -3 28 -6 45 -6 30 -5 31 22 30 35 -3 74 9 74
22 0 15 -45 28 -77 23 -28 -4 -30 -3 -29 25 1 29 3 31 38 29 20 -1 44 5 53 12
15 12 15 14 -2 24 -10 5 -33 9 -51 8 -31 -3 -32 -1 -26 25 10 41 12 43 42 33
15 -5 36 -8 47 -6 11 3 22 5 24 5 13 3 -26 31 -50 36 -39 9 -43 18 -21 54 17
28 20 29 39 16 29 -20 56 -10 42 16 -5 10 -16 19 -24 19 -23 0 -25 14 -6 39
17 23 19 23 44 7 32 -22 43 -6 17 27 -19 24 -19 25 -1 41 16 15 19 15 24 2 4
-9 13 -13 22 -10 18 7 20 31 3 37 -27 9 21 45 62 45 41 1 84 22 112 56 30 36
23 45 -29 40 -52 -4 -103 -22 -103 -34 0 -15 -74 -82 -78 -71 -5 16 -32 14
-32 -3 0 -8 5 -16 10 -18 6 -2 4 -13 -6 -26 -14 -20 -18 -22 -33 -9 -9 8 -24
17 -33 20 -25 9 -24 -28 1 -45 19 -14 19 -14 -1 -46 -19 -30 -21 -31 -41 -17
-12 8 -35 15 -52 15 l-30 -1 28 -24 c15 -14 35 -25 43 -25 18 0 18 -2 -3 -45
-12 -25 -21 -34 -32 -29 -33 13 -91 13 -91 -1 0 -18 41 -42 68 -40 26 2 25 3
11 -45 -11 -34 -14 -37 -38 -31 -31 9 -73 0 -78 -16 -5 -13 31 -26 70 -25 26
1 28 -2 24 -31 -3 -30 -6 -32 -45 -32 -52 -1 -74 -18 -42 -35 11 -6 36 -10 53
-8 31 3 32 2 33 -37 1 -22 4 -47 6 -55 2 -8 -5 -15 -17 -15 -37 -3 -74 -17
-79 -31 -9 -24 19 -27 84 -10 23 6 26 3 37 -41 6 -26 14 -56 18 -65 6 -15 2
-18 -22 -18 -35 0 -69 -22 -59 -39 9 -13 72 -7 91 9 8 7 18 -4 33 -36 12 -24
22 -46 22 -48 0 -2 -11 -7 -24 -10 -13 -3 -34 -17 -47 -30 l-23 -24 -26 42
c-100 162 -135 280 -134 461 1 173 50 316 160 472 111 156 333 294 513 319 19
2 37 6 39 9 2 2 65 2 141 1 107 -3 151 -8 206 -26z m164 -880 c-58 -53 -72
-60 -67 -32 2 11 -4 18 -19 20 -47 7 -23 31 47 48 93 24 98 19 39 -36z m-129
-8 c0 -4 -19 -18 -42 -30 -57 -29 -111 -59 -124 -69 -27 -21 -52 -31 -62 -24
-6 4 37 34 101 69 114 63 127 68 127 54z m38 -47 c2 -16 -16 -32 -81 -71 -98
-61 -123 -70 -142 -54 -22 19 -19 25 25 46 22 10 40 22 40 27 0 4 6 7 14 7 8
0 21 6 28 13 24 23 83 56 98 54 8 -1 16 -11 18 -22z m-335 -67 c66 -36 131
-109 84 -93 -7 2 -27 6 -45 9 -68 9 -192 84 -192 116 0 25 78 9 153 -32z m-58
-87 c-10 -16 -126 -84 -132 -77 -8 7 20 30 64 51 18 9 35 20 38 25 3 6 13 10
21 10 8 0 13 -4 9 -9z m103 -23 c19 -2 6 -10 -90 -62 -91 -48 -118 -56 -118
-32 0 23 140 105 170 99 14 -2 31 -5 38 -5z m-316 -99 c-17 -29 -16 -31 11
-54 45 -40 205 -78 317 -76 29 1 96 9 128 16 12 3 32 7 45 10 33 7 101 38 109
50 13 18 9 53 -8 59 -8 3 -13 10 -9 15 13 22 55 -3 128 -78 68 -70 77 -83 67
-100 -6 -11 -20 -26 -32 -32 -18 -10 -24 -8 -39 12 -15 19 -21 21 -28 10 -5
-7 -14 -10 -21 -6 -8 5 -5 14 11 31 18 19 20 26 10 38 -10 12 -17 13 -31 4
-14 -9 -25 -9 -45 0 -30 14 -65 1 -65 -23 0 -18 -28 -33 -75 -41 -25 -4 -35
-2 -30 5 3 6 13 11 21 11 8 0 14 5 14 10 0 15 -36 12 -50 -5 -6 -8 -9 -22 -6
-32 3 -10 8 -34 11 -53 3 -19 13 -42 21 -50 12 -12 14 -12 14 7 0 12 -4 33
-10 47 -8 21 -6 27 10 36 32 17 42 12 25 -13 -13 -20 -13 -26 0 -43 16 -25 57
-25 61 -1 1 9 -2 19 -7 23 -11 7 -12 54 -1 54 5 0 16 -18 25 -40 18 -46 41
-55 31 -12 -4 15 -10 32 -14 37 -4 6 -10 22 -14 38 -5 22 -3 27 13 27 14 0 19
-5 15 -15 -8 -20 20 -20 36 0 20 24 23 10 5 -25 -9 -17 -14 -38 -11 -46 7 -19
46 -18 61 2 11 15 12 15 17 -4 5 -17 -4 -26 -53 -52 -60 -31 -134 -57 -192
-66 -18 -3 -43 -7 -57 -9 -31 -6 -143 -6 -190 -1 -137 17 -269 67 -334 128
-11 10 -23 18 -26 18 -3 0 -16 13 -28 29 l-22 30 53 53 c81 82 126 118 141
112 12 -5 12 -10 -2 -35z m-227 -60 c5 -14 13 -19 26 -16 23 6 25 -6 4 -23
-25 -21 -18 -59 18 -92 74 -70 209 -142 292 -155 17 -3 49 -8 72 -12 46 -9
227 -7 285 3 20 3 49 11 65 17 15 6 36 12 46 14 26 6 140 69 173 97 68 57 74
70 54 108 -8 15 -5 24 16 45 l25 25 27 -19 c15 -10 38 -21 51 -22 23 -4 21 -7
-25 -55 -27 -28 -74 -69 -104 -91 -57 -42 -198 -113 -223 -113 -7 0 -17 -3
-21 -7 -3 -4 -12 -8 -19 -9 -7 -2 -23 -5 -37 -9 -14 -3 -38 -8 -55 -12 -69
-14 -309 -4 -339 14 -6 4 -15 8 -21 9 -38 8 -53 12 -75 21 -125 52 -211 109
-304 199 l-60 58 33 7 c18 4 40 14 49 23 22 22 39 20 47 -5z m750 -177 c-8 -8
-25 10 -19 20 4 6 9 5 15 -3 4 -7 6 -15 4 -17z"/>
<path d="M2370 3304 c0 -10 33 -33 48 -34 21 0 13 16 -13 28 -30 14 -35 15
-35 6z"/>
<path d="M2477 3293 c-49 -55 -55 -153 -13 -207 24 -32 24 -34 7 -50 -19 -17
-61 -22 -61 -7 0 10 -40 22 -51 15 -14 -8 32 -73 68 -95 80 -50 191 -5 218 89
8 28 -11 29 -45 2 -32 -25 -41 -25 -70 0 -13 11 -19 20 -13 20 5 0 19 17 31
39 30 53 30 127 -1 172 -27 40 -47 46 -70 22z m64 -63 c14 -45 5 -100 -19
-130 l-17 -22 -19 21 c-29 32 -31 120 -3 159 26 36 41 29 58 -28z"/>
<path d="M2603 3297 c-25 -11 -31 -27 -10 -27 19 0 52 26 41 32 -5 3 -19 1
-31 -5z"/>
<path d="M2355 3240 c-7 -11 43 -26 52 -16 9 8 0 16 -25 21 -12 2 -24 0 -27
-5z"/>
<path d="M2618 3243 c-29 -7 -22 -31 7 -25 14 2 25 11 25 18 0 14 -3 15 -32 7z"/>
<path d="M2357 3188 c-13 -9 -13 -9 26 -14 18 -2 27 2 27 11 0 14 -32 16 -53
3z"/>
<path d="M2602 3193 c-21 -8 -2 -23 29 -23 17 0 28 4 25 9 -7 11 -37 19 -54
14z"/>
<path d="M2383 3133 c-7 -2 -13 -9 -13 -15 0 -14 43 -6 48 10 4 12 -12 15 -35
5z"/>
<path d="M2580 3131 c0 -12 48 -27 57 -17 9 8 2 13 -30 21 -17 5 -27 3 -27 -4z"/>
<path d="M2160 2875 c0 -14 -4 -26 -10 -26 -5 -1 -16 -2 -22 -3 -21 -2 -17
-48 19 -231 22 -114 23 -115 92 -115 87 0 155 -24 205 -73 24 -23 46 -49 50
-57 5 -12 7 -12 12 -2 14 31 60 74 97 93 49 26 76 31 152 33 33 0 65 4 72 9 6
4 14 26 18 50 4 23 9 49 11 57 34 165 41 205 37 216 -2 7 -14 14 -26 16 -16 2
-21 9 -19 26 4 28 -9 28 -65 1 -23 -11 -71 -22 -105 -25 -35 -2 -72 -7 -83
-11 -11 -4 -26 -8 -33 -9 -8 -1 -22 -10 -31 -18 -21 -20 -30 -20 -50 -2 -25
21 -80 37 -146 42 -34 3 -82 16 -111 30 -63 30 -64 30 -64 -1z m62 -24 c18
-11 56 -23 83 -26 127 -15 145 -21 176 -57 20 -22 35 -23 42 -4 10 24 64 46
125 51 73 6 152 24 152 36 0 5 5 9 11 9 11 0 10 -14 -5 -115 -10 -59 -19 -142
-18 -157 1 -24 -9 -29 -82 -33 -75 -5 -140 -28 -178 -63 l-26 -24 -29 26 c-39
36 -129 66 -206 67 -20 1 -39 5 -42 9 -6 9 -12 52 -20 125 -6 62 -13 114 -21
153 -5 27 -4 27 38 3z m-51 -43 c0 -13 2 -34 4 -48 1 -14 6 -54 9 -90 4 -36 9
-74 11 -85 2 -11 4 -23 4 -26 1 -9 35 -17 104 -24 75 -8 122 -29 163 -70 l32
-33 24 25 c44 48 109 71 210 78 44 2 80 18 76 33 -1 4 2 29 6 55 4 27 9 65 11
85 5 50 15 105 21 111 2 3 9 0 15 -6 7 -7 4 -41 -12 -114 -12 -57 -23 -114
-24 -126 -7 -56 -10 -58 -92 -59 -90 0 -157 -25 -204 -75 l-29 -31 -42 41
c-48 48 -114 71 -208 74 -44 1 -61 6 -65 17 -4 15 -23 118 -32 175 -2 17 -8
47 -13 67 -5 25 -4 39 4 42 21 9 26 6 27 -16z"/>
<path d="M2266 2771 c-8 -13 -12 -12 49 -15 28 -2 66 -6 85 -11 33 -6 34 -6
19 10 -20 20 -143 33 -153 16z"/>
<path d="M2632 2770 c-23 -4 -48 -12 -55 -19 -10 -11 -4 -12 28 -7 22 4 61 7
88 8 27 0 47 5 47 12 0 12 -43 15 -108 6z"/>
<path d="M2273 2697 c2 -6 23 -12 48 -13 24 -1 56 -6 72 -13 21 -8 27 -8 27 3
0 19 -26 28 -93 31 -39 2 -57 0 -54 -8z"/>
<path d="M2490 2610 c0 -60 4 -100 10 -100 6 0 10 26 11 58 0 31 1 76 2 100 1
28 -2 42 -10 42 -10 0 -13 -27 -13 -100z"/>
<path d="M2645 2700 c-46 -7 -68 -17 -60 -30 3 -5 16 -5 31 0 14 6 45 11 70
12 25 1 47 5 49 9 7 10 -44 15 -90 9z"/>
<path d="M2270 2631 c0 -4 24 -11 53 -14 28 -4 62 -9 75 -13 13 -4 22 -2 22 4
0 6 -17 16 -37 21 -46 13 -113 14 -113 2z"/>
<path d="M2628 2632 c-14 -2 -32 -10 -39 -18 -11 -14 -8 -15 26 -8 21 4 55 7
76 8 34 1 66 14 43 17 -21 4 -81 4 -106 1z"/>
<path d="M2714 2332 c-12 -9 -37 -25 -55 -36 -19 -10 -29 -21 -22 -23 15 -6
114 57 107 68 -7 11 -5 12 -30 -9z"/>
<path d="M2125 1979 c3 -9 1 -20 -4 -23 -6 -4 -8 -13 -4 -21 3 -8 1 -15 -5
-15 -5 0 -12 10 -15 22 -4 12 -9 19 -13 16 -3 -4 -3 -19 0 -34 6 -22 11 -25
32 -20 16 4 23 3 20 -3 -4 -5 -2 -12 4 -16 6 -3 18 7 28 24 31 55 57 34 28
-21 -22 -42 1 -45 25 -3 17 29 26 34 43 29 41 -12 52 -24 18 -19 -27 5 -34 2
-41 -17 -6 -16 -5 -27 5 -37 18 -19 31 -6 14 14 -7 8 -9 15 -4 16 5 0 17 2 26
4 9 2 22 -3 29 -11 6 -8 18 -14 25 -14 8 0 14 -11 14 -26 0 -22 2 -24 15 -14
8 6 14 15 13 18 -3 30 4 62 16 62 9 0 12 -11 10 -40 -2 -22 1 -42 7 -45 9 -6
13 1 23 48 5 20 12 27 31 27 13 0 27 -4 30 -10 3 -5 0 -7 -8 -4 -8 3 -20 -2
-27 -11 -15 -19 -5 -34 12 -17 19 19 28 14 28 -18 0 -28 19 -44 21 -17 7 96 7
97 -15 98 -97 2 -176 15 -244 40 -89 33 -89 32 -95 10 -3 -12 -11 -21 -17 -21
-10 0 -10 3 0 15 15 18 5 52 -15 52 -10 0 -13 -6 -10 -18z m235 -99 c0 -5 -4
-10 -10 -10 -5 0 -10 5 -10 10 0 6 5 10 10 10 6 0 10 -4 10 -10z"/>
<path d="M3485 3430 c-10 -11 -13 -20 -8 -20 6 0 14 8 17 17 6 15 8 15 16 3 5
-8 12 -12 15 -9 3 4 -1 11 -8 18 -11 8 -18 6 -32 -9z"/>
<path d="M3550 3424 c6 -14 8 -30 4 -35 -3 -5 0 -9 7 -9 7 0 9 9 5 23 -3 12
-6 28 -6 35 0 6 -4 12 -10 12 -6 0 -6 -9 0 -26z"/>
<path d="M3303 3395 c-12 -14 -18 -25 -13 -25 11 0 40 29 40 41 0 13 -2 12
-27 -16z"/>
<path d="M3520 3401 c0 -6 4 -13 10 -16 6 -3 7 1 4 9 -7 18 -14 21 -14 7z"/>
<path d="M3416 3385 c-11 -8 -15 -15 -9 -15 6 0 16 7 23 15 16 19 11 19 -14 0z"/>
<path d="M3318 3350 c-15 -16 -22 -30 -16 -32 8 -3 7 -11 -1 -26 -9 -17 -9
-22 1 -22 7 0 14 12 15 27 0 15 6 29 12 31 6 2 11 10 11 17 0 7 5 15 12 17 7
3 8 7 2 10 -5 4 -21 -7 -36 -22z"/>
<path d="M3260 3360 c0 -5 -16 -18 -35 -27 -19 -9 -35 -20 -35 -25 0 -10 27
-11 32 0 2 4 16 17 31 29 16 12 23 24 17 28 -5 3 -10 1 -10 -5z"/>
<path d="M3539 3368 c-1 -2 -3 -20 -4 -40 -2 -27 1 -35 11 -31 8 3 11 9 8 14
-3 5 0 9 7 9 8 0 8 4 -2 16 -10 13 -10 17 2 25 11 7 11 9 -3 9 -10 0 -19 -1
-19 -2z"/>
<path d="M3359 3325 c-1 -3 -2 -8 -3 -12 -1 -5 -6 -15 -11 -23 -17 -27 -45
-84 -45 -92 0 -4 5 -8 10 -8 6 0 10 4 10 9 0 5 4 20 9 33 5 13 8 26 7 29 0 4
8 16 18 28 11 12 15 21 10 21 -5 0 -2 5 6 10 10 6 11 10 3 10 -7 0 -14 -2 -14
-5z"/>
<path d="M3263 3313 c-7 -2 -13 -9 -13 -15 0 -7 5 -7 13 1 8 6 18 7 22 3 5 -4
5 -1 1 6 -4 6 -8 12 -9 11 -1 0 -8 -3 -14 -6z"/>
<path d="M1420 3288 c0 -5 -5 -6 -10 -3 -19 12 -65 -6 -103 -40 -37 -33 -39
-34 -65 -19 -25 15 -26 15 -7 0 22 -18 26 -35 13 -53 -5 -6 -11 -24 -14 -40
l-5 -28 21 33 c11 18 20 38 20 45 0 15 68 82 92 90 10 3 20 2 23 -3 3 -5 16
-7 29 -4 32 6 74 22 61 24 -40 6 -55 5 -55 -2z"/>
<path d="M3566 3292 c-9 -8 4 -22 19 -22 8 0 23 -7 32 -15 10 -8 27 -22 38
-30 19 -15 18 -17 -33 -64 -56 -51 -138 -88 -191 -87 -32 1 -36 -2 -23 -20 13
-19 46 -31 80 -27 l34 3 -20 -33 c-19 -29 -36 -97 -26 -97 3 0 28 24 57 53 57
58 122 95 177 99 35 3 35 3 33 -37 -2 -61 -6 -85 -15 -85 -5 0 -3 -9 4 -20 7
-11 18 -20 25 -20 7 0 13 -4 13 -10 0 -5 7 -10 15 -10 8 0 15 5 15 10 0 6 -6
10 -13 10 -7 0 -21 6 -30 13 -15 11 -15 15 5 46 28 44 37 104 24 164 -5 22 -3
27 12 27 25 0 45 45 32 69 -13 24 -46 32 -61 15 -13 -16 -39 -19 -39 -4 0 27
-146 91 -164 72z"/>
<path d="M1348 3223 c7 -3 16 -2 19 1 4 3 -2 6 -13 5 -11 0 -14 -3 -6 -6z"/>
<path d="M1184 3205 c-3 -8 -4 -20 -1 -27 3 -7 6 -3 6 9 1 12 7 24 14 26 9 4
9 6 -1 6 -7 1 -15 -6 -18 -14z"/>
<path d="M1367 3170 c9 -11 19 -17 21 -15 6 6 -18 35 -29 35 -5 0 -1 -9 8 -20z"/>
<path d="M1205 3160 c3 -5 8 -10 11 -10 2 0 4 5 4 10 0 6 -5 10 -11 10 -5 0
-7 -4 -4 -10z"/>
<path d="M1430 3115 c7 -9 15 -13 18 -10 3 3 11 0 19 -6 7 -6 13 -8 13 -5 0 4
7 0 16 -8 17 -18 34 -21 34 -7 0 5 -8 11 -17 13 -10 3 -22 6 -28 8 -5 1 -19 9
-30 16 -26 19 -41 18 -25 -1z"/>
<path d="M1227 3093 c-7 -12 -5 -63 2 -67 3 -2 7 13 7 35 2 39 -1 46 -9 32z"/>
<path d="M1258 3067 c-3 -7 -4 -24 -3 -39 1 -18 -2 -25 -12 -21 -7 3 -13 -2
-13 -11 0 -10 5 -13 17 -9 11 4 14 3 9 -5 -8 -14 1 -52 13 -52 5 0 6 32 3 70
l-5 70 39 -6 c22 -3 36 -2 31 2 -13 13 -75 14 -79 1z"/>
<path d="M1430 3074 c0 -10 85 -83 90 -77 3 2 -3 9 -13 14 -12 7 -16 17 -12
30 5 14 2 17 -8 13 -7 -2 -20 2 -27 11 -12 15 -30 20 -30 9z"/>
<path d="M1550 3069 c-12 -8 -10 -9 7 -4 24 7 41 -10 19 -18 -8 -3 -26 -4 -40
-1 -14 2 -26 0 -26 -6 0 -18 65 -11 88 10 12 12 22 22 22 23 0 7 -58 4 -70 -4z"/>
<path d="M1350 3061 c0 -5 7 -12 16 -15 24 -9 27 -7 10 9 -17 17 -26 19 -26 6z"/>
<path d="M1430 3009 c39 -31 60 -41 60 -29 0 5 -5 10 -10 10 -6 0 -20 9 -32
20 -12 11 -27 20 -32 20 -6 0 0 -9 14 -21z"/>
<path d="M1530 2964 c0 -10 -6 -14 -14 -11 -12 5 -13 1 -7 -15 13 -36 29 -32
29 7 0 19 -2 35 -4 35 -2 0 -4 -7 -4 -16z"/>
<path d="M1208 2891 c-31 -19 -52 -44 -67 -75 -22 -45 -34 -55 -45 -37 -9 13
-45 1 -55 -18 -18 -34 28 -85 59 -66 6 3 10 -4 10 -18 0 -53 14 -89 51 -131
38 -43 38 -43 19 -64 -27 -28 -7 -39 21 -11 l22 22 -22 41 c-13 23 -23 57 -24
76 l-2 35 70 -1 c74 -1 136 -10 145 -22 3 -4 19 -14 37 -24 25 -13 33 -14 37
-3 5 14 -37 65 -69 83 -20 11 -20 11 1 12 29 0 87 41 90 63 2 14 -2 16 -19 10
-12 -4 -60 -8 -107 -8 -68 1 -93 5 -127 23 l-42 22 17 35 c9 19 32 42 50 52
17 10 32 21 32 25 0 17 -38 7 -82 -21z"/>
<path d="M3788 2853 c6 -2 12 -11 12 -19 0 -8 5 -14 10 -14 7 0 7 6 0 20 -6
11 -16 20 -23 19 -9 0 -9 -2 1 -6z"/>
<path d="M3840 2838 c11 -12 20 -28 20 -35 0 -8 4 -11 10 -8 10 6 -27 65 -42
65 -5 0 0 -10 12 -22z"/>
<path d="M3811 2803 c3 -21 -3 -33 -17 -33 -8 0 -12 -5 -9 -11 5 -7 14 -4 26
7 20 18 26 44 9 44 -5 0 -9 -3 -9 -7z"/>
<path d="M3910 2766 c0 -2 7 -6 15 -10 8 -3 15 -1 15 4 0 6 -7 10 -15 10 -8 0
-15 -2 -15 -4z"/>
<path d="M3526 2751 c-4 -5 -2 -12 4 -16 16 -10 159 -14 165 -5 3 5 -26 8 -65
8 -40 0 -76 4 -84 11 -9 8 -16 8 -20 2z"/>
<path d="M3733 2750 c-25 -10 -31 -19 -10 -16 16 2 55 25 42 25 -5 0 -20 -4
-32 -9z"/>
<path d="M3886 2752 c-3 -5 -3 -20 0 -33 3 -13 6 -29 6 -36 3 -29 17 1 16 33
-1 35 -12 52 -22 36z"/>
<path d="M3957 2748 c4 -7 6 -21 5 -30 -2 -10 1 -18 6 -18 5 0 8 10 6 23 -1
12 -3 25 -3 30 -1 4 -6 7 -12 7 -6 0 -7 -5 -2 -12z"/>
<path d="M3580 2696 c23 -9 34 -19 32 -30 -3 -18 13 -22 24 -4 5 7 3 8 -6 3
-9 -5 -11 -4 -6 4 4 6 12 9 17 5 12 -7 59 4 59 14 0 4 -21 7 -48 8 -26 0 -60
4 -77 7 -26 6 -26 5 5 -7z"/>
<path d="M3940 2690 c0 -5 5 -10 11 -10 5 0 7 5 4 10 -3 6 -8 10 -11 10 -2 0
-4 -4 -4 -10z"/>
<path d="M3570 2630 c-6 -12 -9 -24 -6 -27 3 -3 -2 -12 -12 -19 -11 -9 -13
-13 -4 -14 7 0 25 12 40 27 15 15 19 21 9 13 -22 -16 -34 -6 -17 15 7 9 10 18
7 21 -3 3 -11 -4 -17 -16z"/>
<path d="M3700 2641 c0 -6 9 -9 20 -8 11 1 20 5 20 9 0 4 -9 8 -20 8 -11 0
-20 -4 -20 -9z"/>
<path d="M3750 2640 c0 -5 5 -10 10 -10 6 0 10 5 10 10 0 6 -4 10 -10 10 -5 0
-10 -4 -10 -10z"/>
<path d="M3780 2642 c0 -5 7 -9 15 -9 8 0 15 4 15 9 0 4 -7 8 -15 8 -8 0 -15
-4 -15 -8z"/>
<path d="M3827 2638 c6 -7 9 -21 8 -30 -2 -10 1 -20 6 -24 5 -3 9 8 9 24 0 18
-6 32 -16 36 -13 5 -14 3 -7 -6z"/>
<path d="M3882 2633 c1 -10 -1 -24 -5 -30 -5 -8 -4 -13 2 -13 6 0 11 3 12 8 0
4 2 17 5 30 2 12 -1 22 -7 22 -6 0 -9 -8 -7 -17z"/>
<path d="M3641 2629 c-13 -5 -22 -11 -20 -14 8 -7 49 7 49 16 0 5 -1 9 -2 8
-2 0 -14 -5 -27 -10z"/>
<path d="M3827 2558 c-2 -7 -4 -17 -3 -21 0 -5 -7 -13 -16 -18 -24 -13 -23
-35 2 -62 11 -12 18 -27 16 -34 -3 -7 -1 -13 4 -13 5 0 8 -12 7 -27 -2 -20 -9
-29 -32 -35 -27 -7 -48 -6 -125 8 -14 3 -31 5 -37 6 -7 1 -13 6 -13 11 0 6 -3
7 -6 4 -4 -4 -19 2 -34 13 -36 26 -50 25 -45 -2 4 -21 51 -67 68 -68 16 0 -4
-20 -21 -20 -9 -1 -30 -12 -47 -25 -40 -33 -24 -47 38 -32 79 18 227 -21 227
-59 0 -9 -18 -34 -40 -57 -44 -43 -45 -53 -6 -43 32 8 94 71 113 114 12 28 16
31 33 22 23 -12 60 2 60 23 -1 38 -13 56 -43 59 -28 3 -31 7 -32 38 -3 43 -29
96 -63 128 l-25 24 27 24 c27 26 37 45 11 24 -18 -15 -20 1 -3 18 8 8 8 12 1
12 -6 0 -13 -6 -16 -12z"/>
<path d="M1140 2439 c0 -5 5 -7 10 -4 6 3 10 8 10 11 0 2 -4 4 -10 4 -5 0 -10
-5 -10 -11z"/>
<path d="M1165 2418 c-15 -44 -11 -63 12 -64 13 -1 20 3 17 8 -3 4 -10 5 -16
2 -8 -5 -9 6 -4 34 7 46 3 55 -9 20z"/>
<path d="M1440 2423 c0 -7 -6 -13 -14 -13 -8 0 -18 -5 -22 -12 -5 -7 0 -9 14
-6 12 3 23 1 25 -5 2 -6 6 -4 9 4 3 9 2 22 -3 30 -6 10 -9 10 -9 2z"/>
<path d="M1132 2412 c-7 -5 -15 -26 -19 -48 -3 -21 -2 -36 2 -32 4 4 9 19 11
33 1 14 8 32 14 40 14 17 11 19 -8 7z"/>
<path d="M1368 2383 c-10 -2 -18 -8 -18 -13 0 -4 9 -6 20 -3 11 3 20 9 20 14
0 5 -1 8 -2 8 -2 -1 -11 -3 -20 -6z"/>
<path d="M1300 2360 c-12 -8 -9 -9 12 -8 15 1 24 6 22 10 -7 10 -16 10 -34 -2z"/>
<path d="M1418 2363 c-4 -11 -75 -43 -93 -43 -8 0 -15 -4 -15 -9 0 -5 8 -8 18
-6 9 2 27 4 40 4 12 1 22 7 22 16 0 8 6 15 14 15 7 0 19 7 26 15 8 9 8 15 2
15 -6 0 -12 -3 -14 -7z"/>
<path d="M1216 2348 c3 -4 16 -7 29 -6 13 1 22 5 19 8 -9 8 -53 7 -48 -2z"/>
<path d="M1056 2312 c-3 -5 1 -9 9 -9 8 0 15 4 15 9 0 4 -4 8 -9 8 -6 0 -12
-4 -15 -8z"/>
<path d="M1090 2302 c0 -4 5 -13 11 -19 12 -12 5 -47 -8 -40 -5 3 -17 1 -28
-4 -16 -7 -13 -8 13 -6 33 4 52 -13 58 -53 3 -15 32 -40 47 -40 5 0 -2 10 -17
21 -15 12 -25 24 -22 27 3 3 1 12 -6 19 -6 8 -13 29 -14 46 -1 18 -3 34 -4 37
-1 3 -2 8 -1 13 0 4 -6 7 -14 7 -8 0 -15 -4 -15 -8z"/>
<path d="M1395 2300 c-3 -5 -2 -10 4 -10 5 0 13 5 16 10 3 6 2 10 -4 10 -5 0
-13 -4 -16 -10z"/>
<path d="M1037 2284 c-4 -4 -7 -14 -7 -23 0 -11 3 -12 11 -4 6 6 10 16 7 23
-2 6 -7 8 -11 4z"/>
<path d="M1338 2268 c-8 -5 -1 -8 22 -7 34 1 61 -3 101 -16 13 -4 19 -2 19 9
0 11 -10 15 -37 15 -21 -1 -50 1 -65 4 -14 2 -32 0 -40 -5z"/>
<path d="M1265 2257 c-8 -4 -15 -13 -15 -19 0 -9 3 -9 12 0 7 7 20 12 29 12
10 0 20 4 23 8 6 10 -30 10 -49 -1z"/>
<path d="M1218 2233 c7 -3 16 -2 19 1 4 3 -2 6 -13 5 -11 0 -14 -3 -6 -6z"/>
<path d="M1183 2213 c-9 -3 -7 -15 8 -45 11 -22 23 -37 26 -34 3 3 -2 17 -11
31 -10 15 -15 33 -12 41 3 8 4 14 3 13 -1 0 -8 -3 -14 -6z"/>
<path d="M1210 2110 c45 -25 74 -26 42 -2 -13 10 -35 19 -50 19 -26 2 -26 2 8
-17z"/>
<path d="M1499 2068 c-21 -44 -140 -119 -211 -133 -18 -4 -33 40 -25 72 23 84
14 97 -20 31 -27 -54 -32 -87 -23 -138 6 -30 4 -40 -6 -40 -34 0 -56 -87 -23
-91 5 -1 15 -2 22 -3 6 -1 20 4 29 12 15 12 20 11 44 -13 46 -46 143 -81 158
-57 3 5 -10 15 -29 22 -19 8 -45 25 -57 38 l-23 24 41 36 c22 20 58 46 80 57
21 11 41 22 44 25 7 7 31 13 64 14 63 2 27 42 -43 48 -33 3 -34 4 -17 21 21
21 35 97 17 97 -6 0 -16 -10 -22 -22z"/>
<path d="M3467 2070 c-3 -11 -1 -23 4 -26 5 -3 9 -1 9 5 0 5 3 16 6 25 3 9 2
16 -4 16 -5 0 -12 -9 -15 -20z"/>
<path d="M3735 2000 c3 -70 -1 -77 -37 -71 -5 0 -8 -3 -8 -8 0 -6 12 -9 28 -8
24 2 27 6 30 45 4 59 22 42 22 -21 0 -31 4 -47 9 -39 13 22 -3 127 -19 117 -4
-3 -8 1 -7 8 1 29 -4 47 -12 47 -4 0 -7 -31 -6 -70z"/>
<path d="M3503 2042 c10 -10 14 -22 10 -27 -5 -4 -3 -5 4 -1 6 3 16 -2 22 -11
5 -10 12 -15 16 -12 3 4 -8 21 -25 38 -34 33 -54 43 -27 13z"/>
<path d="M3486 2000 c10 -16 19 -28 21 -26 5 5 -22 56 -30 56 -5 0 0 -13 9
-30z"/>
<path d="M3570 1980 c0 -5 5 -10 10 -10 6 0 10 5 10 10 0 6 -4 10 -10 10 -5 0
-10 -4 -10 -10z"/>
<path d="M3424 1960 c-12 -5 -25 -13 -28 -18 -8 -14 18 -22 35 -11 8 5 10 9 5
9 -5 0 -3 7 4 15 14 17 13 17 -16 5z"/>
<path d="M3476 1962 c-8 -13 19 -23 39 -16 8 4 15 2 15 -4 0 -12 38 -23 44
-13 3 3 -9 14 -25 23 -17 10 -31 13 -35 7 -4 -6 -10 -6 -19 1 -8 7 -16 7 -19
2z"/>
<path d="M3621 1944 c13 -16 29 -19 29 -5 0 5 -9 11 -21 14 -16 4 -18 3 -8 -9z"/>
<path d="M3450 1920 c0 -5 5 -10 10 -10 6 0 10 5 10 10 0 6 -4 10 -10 10 -5 0
-10 -4 -10 -10z"/>
<path d="M3486 1908 c3 -5 8 -7 11 -4 3 2 21 -4 40 -15 19 -11 31 -15 28 -9
-7 11 -47 30 -73 36 -6 1 -9 -2 -6 -8z"/>
<path d="M3760 1875 c-1 -5 -3 -14 -4 -20 -3 -18 -30 -70 -41 -78 -5 -5 0 -6
11 -2 14 3 28 -1 39 -11 15 -16 18 -16 33 1 9 10 11 15 4 11 -22 -13 -53 4
-50 27 4 29 64 33 62 5 -1 -10 2 -18 7 -18 16 0 10 26 -10 44 -11 10 -24 15
-30 12 -5 -4 -12 4 -14 16 -2 13 -5 19 -7 13z"/>
<path d="M3605 1840 c3 -5 8 -10 11 -10 2 0 4 5 4 10 0 6 -5 10 -11 10 -5 0
-7 -4 -4 -10z"/>
<path d="M1689 1802 c-2 -21 -4 -27 -13 -40 -4 -7 -6 -15 -3 -18 2 -3 12 7 22
22 12 19 14 29 6 37 -8 8 -11 8 -12 -1z"/>
<path d="M3293 1787 c-11 -24 -7 -70 8 -98 9 -17 7 -17 -26 -3 -36 15 -95 16
-95 2 0 -4 22 -20 50 -36 52 -30 111 -98 136 -158 20 -47 9 -58 -59 -60 -44
-1 -54 -5 -64 -25 -13 -27 -16 -44 -14 -79 1 -19 4 -21 10 -11 5 8 7 20 4 27
-2 6 0 15 6 18 5 4 8 18 5 32 -4 24 -4 25 24 10 35 -18 116 -16 158 5 29 15
31 15 40 -5 18 -42 74 -27 74 20 0 13 -9 29 -20 36 -19 12 -19 13 3 47 17 28
21 51 22 110 0 45 -4 76 -11 78 -7 2 -10 -10 -9 -32 2 -19 -1 -38 -6 -41 -5
-3 -9 -14 -9 -24 0 -11 -9 -24 -20 -30 -14 -7 -20 -7 -20 0 0 5 -6 10 -14 10
-31 0 -146 162 -146 205 0 24 -17 25 -27 2z"/>
<path d="M3649 1797 c16 -20 17 -18 -30 -50 -19 -13 -45 -23 -57 -22 -27 2
-29 -11 -3 -24 15 -9 22 -6 34 13 9 12 29 29 46 36 35 14 39 31 14 51 -16 13
-17 12 -4 -4z"/>
<path d="M1702 1753 c-5 -47 -36 -119 -54 -126 -8 -3 -6 -6 4 -6 10 -1 23 8
30 19 7 11 18 20 25 20 7 0 13 4 13 9 0 16 61 24 73 11 9 -10 9 -11 1 -7 -7 4
-18 -1 -25 -11 -13 -15 -12 -16 4 -3 9 7 17 10 17 6 0 -4 7 -2 16 6 14 12 14
14 -1 25 -18 13 -66 4 -91 -17 -18 -15 -31 -4 -17 13 13 17 25 78 15 78 -4 0
-9 -8 -10 -17z"/>
<path d="M3690 1751 c0 -8 -29 -23 -50 -26 -3 0 -14 -6 -25 -13 -19 -12 -18
-12 5 -6 14 4 34 10 45 14 25 10 53 40 36 40 -6 0 -11 -4 -11 -9z"/>
<path d="M1652 1710 c-7 -11 -9 -20 -4 -20 4 0 13 9 20 20 7 11 9 20 4 20 -4
0 -13 -9 -20 -20z"/>
<path d="M1462 1698 c-6 -7 -13 -33 -16 -58 -3 -25 -3 -38 1 -30 3 8 10 18 15
21 8 5 20 79 13 79 -1 0 -7 -6 -13 -12z"/>
<path d="M1617 1655 c-10 -14 -14 -25 -10 -25 4 0 16 12 26 25 10 14 14 25 10
25 -4 0 -16 -12 -26 -25z"/>
<path d="M1723 1632 c-13 -15 -23 -31 -23 -35 0 -5 12 6 26 23 15 17 25 33 23
35 -2 2 -14 -9 -26 -23z"/>
<path d="M1470 1611 c0 -6 5 -13 10 -16 6 -4 8 -9 6 -13 -2 -4 2 -13 10 -20
18 -17 18 -8 -1 28 -16 30 -25 38 -25 21z"/>
<path d="M1540 1585 c-13 -14 -21 -25 -17 -25 3 0 18 11 33 25 15 14 23 25 17
25 -5 0 -20 -11 -33 -25z"/>
<path d="M3042 1592 c1 -4 -4 -18 -12 -32 -12 -23 -12 -24 3 -12 14 12 16 9
19 -19 2 -18 10 -34 18 -36 10 -3 11 -2 4 4 -6 4 -11 27 -10 50 1 26 -3 44
-11 47 -7 3 -12 2 -11 -2z"/>
<path d="M1450 1569 c0 -13 9 -38 19 -55 14 -23 16 -35 8 -43 -8 -8 -7 -11 6
-11 9 0 25 -10 37 -22 11 -12 20 -19 20 -15 0 4 15 0 33 -9 38 -20 77 -26 77
-12 0 6 -6 8 -13 5 -30 -11 -166 81 -152 103 3 5 0 10 -5 12 -6 2 -12 16 -14
31 -4 35 -16 48 -16 16z"/>
<path d="M1933 1558 c0 -18 -3 -51 -7 -73 -9 -50 -75 -185 -90 -185 -17 0 -66
66 -66 89 0 11 -5 23 -11 26 -14 9 -9 -83 7 -115 7 -14 27 -40 44 -59 22 -24
28 -37 21 -44 -18 -18 -13 -61 9 -75 21 -13 59 -2 61 18 1 6 2 16 3 23 1 8 19
12 51 12 61 1 93 11 123 38 31 29 27 39 -10 25 -45 -18 -98 -12 -98 11 0 64
55 198 98 236 12 11 22 26 22 33 0 28 -66 3 -97 -38 -10 -12 -12 -8 -13 28 0
49 -14 82 -34 82 -9 0 -13 -12 -13 -32z"/>
<path d="M1635 1540 c-3 -5 -2 -10 4 -10 5 0 13 5 16 10 3 6 2 10 -4 10 -5 0
-13 -4 -16 -10z"/>
<path d="M2914 1525 c1 -8 13 -27 27 -42 32 -35 72 -115 73 -147 1 -14 5 -28
8 -32 4 -3 5 10 3 29 -3 39 -57 144 -83 163 -9 7 -14 16 -10 20 4 4 14 1 23
-6 8 -7 15 -9 15 -4 0 5 5 2 11 -6 7 -10 9 -11 7 -2 -2 8 -8 14 -13 14 -6 0
-19 7 -30 14 -25 18 -34 18 -31 -1z"/>
<path d="M3016 1483 c5 -70 6 -72 22 -78 11 -4 13 0 7 17 -4 13 -10 42 -12 66
-7 58 -22 53 -17 -5z"/>
<path d="M1622 1515 c4 -4 1 -17 -7 -27 -7 -11 -11 -27 -8 -35 7 -18 60 -45
67 -34 3 5 -8 11 -24 15 -23 4 -30 11 -30 29 0 13 5 28 11 34 8 8 7 13 -3 18
-7 5 -10 5 -6 0z"/>
<path d="M2243 1461 c1 -17 6 -31 10 -31 9 0 4 46 -6 56 -3 4 -5 -7 -4 -25z"/>
<path d="M2726 1468 c-7 -13 -21 -36 -30 -53 -9 -19 -15 -24 -16 -13 0 24 -41
68 -67 73 -27 5 -27 6 -6 -35 19 -38 39 -131 38 -175 -2 -48 -16 -105 -27
-105 -21 0 -79 34 -89 51 -15 30 -30 23 -18 -8 19 -52 98 -113 145 -113 13 0
15 -6 11 -29 -7 -32 7 -51 39 -51 29 0 46 22 40 54 -4 22 0 29 21 37 45 17 83
50 103 89 29 57 25 65 -15 26 -30 -31 -71 -53 -80 -44 -1 1 -10 26 -18 54 -17
57 -16 199 2 231 19 37 -11 46 -33 11z"/>
<path d="M2380 1458 c0 -22 16 -24 24 -2 8 21 8 21 -9 21 -8 0 -15 -9 -15 -19z"/>
<path d="M3061 1468 c-1 -9 4 -20 9 -23 6 -4 8 -10 6 -13 -2 -4 2 -18 10 -32
9 -16 13 -19 14 -9 0 9 -3 19 -7 23 -5 4 -8 11 -9 14 0 4 -6 18 -12 32 -7 17
-11 20 -11 8z"/>
<path d="M2270 1456 c0 -3 9 -20 20 -38 11 -19 20 -26 20 -17 0 9 -3 19 -7 23
-5 4 -8 13 -8 19 0 5 -6 12 -12 15 -7 2 -13 1 -13 -2z"/>
<path d="M1451 1423 c0 -25 1 -26 9 -8 12 27 12 35 0 35 -5 0 -10 -12 -9 -27z"/>
<path d="M1698 1416 c-24 -18 -23 -26 3 -21 28 6 35 13 23 24 -5 6 -16 5 -26
-3z"/>
<path d="M2331 1417 c-6 -8 -8 -17 -4 -20 3 -4 -2 -9 -11 -13 -9 -3 -16 -13
-16 -21 0 -27 23 -8 36 30 14 40 13 45 -5 24z"/>
<path d="M2366 1414 c-8 -22 -8 -24 6 -24 6 0 8 3 5 7 -4 3 -2 12 4 20 7 8 8
13 1 13 -5 0 -13 -7 -16 -16z"/>
<path d="M1514 1412 c7 -12 -4 -16 -34 -13 -11 1 -10 -2 4 -10 14 -9 21 -8 33
4 12 11 12 16 2 22 -8 5 -10 4 -5 -3z"/>
<path d="M2258 1393 c7 -3 16 -2 19 1 4 3 -2 6 -13 5 -11 0 -14 -3 -6 -6z"/>
<path d="M2258 1340 c-2 -23 1 -45 7 -50 7 -5 10 7 9 36 -1 58 -11 66 -16 14z"/>
<path d="M2358 1373 c-4 -22 -4 -63 0 -58 7 7 13 65 7 65 -3 0 -6 -3 -7 -7z"/>
<path d="M3112 1350 c7 -10 14 -18 15 -16 6 6 -9 36 -18 36 -5 0 -4 -9 3 -20z"/>
<path d="M2300 1333 c0 -5 5 -15 10 -23 8 -12 10 -11 10 8 0 12 -4 22 -10 22
-5 0 -10 -3 -10 -7z"/>
<path d="M3197 1333 c-4 -3 -7 -11 -7 -17 0 -6 5 -5 12 2 6 6 9 14 7 17 -3 3
-9 2 -12 -2z"/>
<path d="M3140 1314 c0 -2 9 -8 20 -14 11 -6 20 -7 20 -2 0 6 -9 12 -20 15
-11 3 -20 3 -20 1z"/>
<path d="M3210 1295 c0 -7 -8 -19 -17 -24 -10 -6 -14 -11 -9 -11 5 0 5 -6 0
-13 -5 -7 1 -1 13 13 21 23 30 50 18 50 -3 0 -5 -7 -5 -15z"/>
<path d="M3024 1273 c5 -25 -11 -42 -33 -36 -10 3 -21 0 -25 -5 -5 -8 22 -9
67 -3 9 1 5 47 -5 57 -4 3 -5 -2 -4 -13z"/>
<path d="M2340 1261 c0 -6 4 -13 10 -16 6 -3 7 1 4 9 -7 18 -14 21 -14 7z"/>
<path d="M2894 1254 c3 -9 6 -18 6 -20 0 -2 5 -4 11 -4 6 0 22 -9 36 -20 28
-22 43 -25 43 -10 0 6 -3 9 -7 9 -21 -3 -31 3 -36 21 -3 11 -12 20 -21 20 -9
0 -16 5 -16 10 0 6 -5 10 -11 10 -6 0 -8 -7 -5 -16z"/>
<path d="M2115 1246 c-6 -13 -4 -21 3 -24 7 -2 12 -11 12 -21 0 -25 87 -101
115 -101 5 0 -6 10 -25 21 -40 25 -80 60 -80 72 0 5 4 6 9 3 5 -4 7 3 4 14 -3
11 -9 20 -13 20 -5 0 -10 8 -13 18 -4 15 -5 15 -12 -2z"/>
<path d="M2246 1245 c-3 -8 -1 -17 3 -20 5 -3 11 2 15 10 3 8 1 17 -3 20 -5 3
-11 -2 -15 -10z"/>
<path d="M2347 1205 c3 -14 9 -25 12 -25 12 0 6 43 -6 47 -6 2 -8 -7 -6 -22z"/>
<path d="M3119 1216 c-15 -7 -39 -19 -55 -25 l-29 -11 28 5 c25 5 32 -2 28
-27 0 -5 4 -8 9 -8 6 0 10 6 9 13 -4 24 12 45 32 40 35 -9 21 -74 -14 -66 -18
4 -19 3 -7 -6 20 -14 26 -14 44 5 18 17 14 60 -6 81 -11 10 -18 10 -39 -1z"/>
<path d="M2235 1200 c-3 -5 -1 -10 4 -10 6 0 11 5 11 10 0 6 -2 10 -4 10 -3 0
-8 -4 -11 -10z"/>
<path d="M2455 1186 c-16 -13 -27 -28 -23 -32 4 -4 3 -13 -3 -21 -17 -20 -2
-16 20 6 14 14 16 22 8 31 -9 10 -8 12 5 7 12 -4 21 1 28 13 14 27 1 25 -35
-4z"/>
<path d="M3006 1188 c3 -4 9 -8 15 -8 5 0 9 4 9 8 0 5 -7 9 -15 9 -8 0 -12 -4
-9 -9z"/>
<path d="M2190 1171 c0 -6 5 -13 10 -16 6 -3 10 1 10 9 0 9 -4 16 -10 16 -5 0
-10 -4 -10 -9z"/>
<path d="M2220 1169 c0 -5 5 -7 10 -4 6 3 10 8 10 11 0 2 -4 4 -10 4 -5 0 -10
-5 -10 -11z"/>
<path d="M2364 1159 c-6 -11 -6 -11 24 -14 12 -1 22 1 22 5 0 12 -39 19 -46 9z"/>
<path d="M2368 1108 c-16 -5 -28 -14 -28 -19 0 -8 54 14 69 27 7 7 -13 3 -41
-8z"/>
<path d="M2264 1095 c-10 -8 -15 -15 -10 -15 5 0 3 -7 -4 -15 -10 -12 -10 -15
0 -15 9 0 9 -4 -1 -17 -8 -10 -9 -14 -2 -10 6 4 14 3 18 -3 3 -5 12 -10 18
-10 8 0 7 4 -2 9 -32 20 -17 73 18 64 18 -5 22 -37 8 -60 -5 -7 -4 -13 1 -13
13 0 22 25 22 61 0 19 -4 28 -10 24 -6 -4 -17 -2 -24 4 -9 8 -18 7 -32 -4z"/>
<path d="M3514 4126 c-37 -17 -74 -72 -74 -112 1 -31 24 -65 55 -81 24 -13 74
-8 89 7 15 16 -17 39 -47 33 -14 -3 -29 2 -36 11 -29 35 40 124 74 96 8 -7 15
-22 15 -34 0 -21 33 -50 44 -39 3 4 6 22 6 40 0 24 -8 41 -26 58 -15 14 -30
25 -35 25 -4 0 -13 2 -21 5 -7 2 -27 -2 -44 -9z"/>
<path d="M1198 4076 c-16 -12 -16 -14 0 -37 9 -13 26 -33 37 -45 11 -11 44
-50 74 -87 30 -37 57 -67 59 -67 3 0 14 7 23 16 18 16 15 21 -48 98 -124 149
-117 144 -145 122z"/>
<path d="M3741 4036 c-7 -8 -19 -12 -28 -9 -19 7 -35 -17 -22 -33 7 -8 0 -22
-21 -45 -64 -69 -70 -112 -21 -139 26 -13 50 13 31 35 -17 21 56 111 76 94 11
-9 18 -8 29 1 14 12 14 15 0 31 -15 16 -15 18 2 28 14 8 16 14 7 28 -15 24
-38 28 -53 9z"/>
<path d="M3871 3956 c-16 -20 -3 -46 24 -46 29 0 39 25 19 45 -19 19 -28 19
-43 1z"/>
<path d="M1047 3912 c-15 -16 -11 -27 49 -152 65 -133 65 -134 85 -114 17 17
18 24 8 52 -10 30 -9 34 25 67 35 34 37 35 61 19 24 -15 26 -15 44 7 11 13 19
25 18 25 -1 1 -36 16 -77 34 -41 18 -99 43 -128 56 -63 29 -65 29 -85 6z m150
-97 c2 -1 -8 -12 -21 -24 l-25 -23 -20 41 c-12 22 -21 43 -21 46 0 4 76 -30
87 -40z"/>
<path d="M3758 3841 c-66 -68 -66 -68 -47 -88 20 -19 20 -19 89 50 39 37 70
72 70 76 0 11 -23 31 -34 31 -6 -1 -41 -31 -78 -69z"/>
<path d="M3873 3782 c-36 -19 -62 -51 -68 -84 -7 -35 25 -89 63 -105 31 -13
37 -12 76 7 61 29 84 81 61 136 -22 54 -79 74 -132 46z m93 -75 c3 -23 -44
-67 -72 -67 -31 0 -49 33 -33 58 7 11 24 26 38 35 21 13 29 14 45 3 11 -7 20
-20 22 -29z"/>
<path d="M1000 3649 c-14 -21 -29 -39 -35 -39 -11 -1 24 -30 36 -30 7 0 59 72
59 83 0 3 -8 11 -18 16 -15 8 -22 3 -42 -30z"/>
<path d="M3998 3570 c-43 -27 -78 -52 -78 -56 0 -4 7 -15 16 -25 14 -16 19
-15 75 22 49 33 63 38 79 29 36 -19 23 -43 -44 -84 -58 -36 -64 -42 -54 -60 6
-12 12 -23 14 -24 8 -10 143 82 153 104 13 29 -6 77 -35 88 -9 4 -14 9 -11 13
9 8 -12 43 -26 43 -7 0 -47 -22 -89 -50z"/>
<path d="M811 3579 c-28 -11 -70 -57 -72 -79 -6 -60 0 -79 35 -113 61 -59 134
-77 183 -47 30 18 63 74 63 107 0 18 -35 83 -45 83 -2 0 -11 -12 -19 -27 -12
-24 -12 -30 1 -41 24 -23 -3 -82 -39 -82 -48 0 -139 64 -134 94 6 34 29 58 52
53 17 -3 29 2 39 16 23 33 -15 54 -64 36z"/>
<path d="M662 3343 c-18 -33 -64 -154 -60 -157 1 -2 44 -20 95 -40 51 -20 108
-43 126 -51 l34 -14 33 84 c31 81 33 105 6 105 -13 0 -24 -19 -46 -77 -7 -18
-17 -33 -22 -33 -8 0 -47 17 -56 25 -2 2 4 20 12 40 21 49 20 62 -3 68 -15 4
-23 -5 -37 -42 -9 -25 -18 -47 -19 -49 -4 -6 -65 21 -61 27 3 4 14 30 25 59
20 51 20 52 1 62 -15 8 -21 6 -28 -7z"/>
<path d="M4268 3295 c-2 -2 -15 -6 -30 -9 -54 -9 -111 -50 -123 -86 -19 -59 4
-119 57 -146 28 -15 68 -11 68 6 0 23 -14 40 -35 40 -26 0 -53 36 -49 63 3 23
27 41 82 62 35 14 48 15 71 5 36 -15 46 -55 21 -80 -22 -22 -16 -60 10 -60 10
0 25 11 34 25 34 52 10 144 -43 164 -44 16 -59 20 -63 16z"/>
<path d="M579 3057 c-56 -47 -58 -126 -4 -173 37 -33 71 -44 138 -44 33 0 46
6 73 36 33 35 39 57 34 124 -1 14 -6 29 -11 35 -13 13 -108 34 -114 25 -3 -4
-7 -25 -11 -46 -3 -22 -7 -43 -7 -49 -1 -5 7 -9 18 -10 13 0 21 8 23 23 4 24
14 27 43 12 44 -24 6 -92 -51 -91 -19 0 -44 3 -55 5 -11 2 -23 5 -26 5 -3 1
-15 11 -28 22 -17 16 -21 28 -16 48 6 25 28 45 50 46 6 0 11 12 13 28 3 23 0
27 -20 27 -13 0 -35 -10 -49 -23z"/>
<path d="M4254 3004 c-22 -7 -47 -23 -58 -36 -38 -47 6 -173 49 -138 13 11 13
15 2 29 -23 27 -26 48 -10 71 20 28 29 15 38 -52 4 -26 11 -50 15 -53 16 -10
78 22 91 46 44 82 -35 165 -127 133z m90 -70 c3 -8 3 -21 0 -29 -7 -18 -34
-20 -34 -2 0 6 -3 22 -6 34 -5 18 -3 21 14 16 11 -3 23 -11 26 -19z"/>
<path d="M506 2812 c-2 -4 -4 -19 -4 -34 0 -20 15 -41 53 -77 29 -28 51 -52
48 -54 -2 -3 -18 -2 -36 2 -61 12 -72 8 -75 -24 -3 -26 1 -31 20 -32 13 0 68
-4 123 -8 119 -8 107 -8 123 -6 9 1 19 50 10 51 -2 1 -21 3 -43 6 -35 6 -54
17 -55 34 0 3 25 18 55 35 50 26 55 33 55 62 l0 33 -52 -28 c-29 -15 -64 -36
-78 -45 -25 -16 -26 -16 -82 38 -32 29 -59 51 -62 47z"/>
<path d="M4469 2796 c-2 -2 -26 -7 -54 -10 -27 -3 -72 -8 -100 -12 -27 -3 -61
-7 -75 -8 -19 -2 -26 -10 -28 -31 l-4 -28 79 7 c43 4 87 9 98 11 11 3 40 7 64
10 54 5 67 16 52 44 -11 20 -23 26 -32 17z"/>
<path d="M4457 2663 c-2 -1 -192 -15 -225 -16 -8 0 -12 -10 -10 -26 l3 -26 90
3 c50 1 106 4 125 6 19 3 45 5 57 5 18 1 22 6 19 24 -3 12 -5 25 -5 28 -1 6
-49 8 -54 2z"/>
<path d="M592 2314 c-28 -19 -28 -57 -1 -82 25 -24 52 -18 79 15 22 28 15 54
-20 73 -25 13 -32 13 -58 -6z"/>
<path d="M4342 2304 c-27 -19 -28 -48 -2 -74 26 -26 54 -25 79 1 22 24 20 55
-6 75 -24 18 -44 17 -71 -2z"/>
<path d="M610 2108 c-24 -27 -25 -34 -2 -62 18 -22 64 -28 81 -11 21 23 22 54
2 74 -27 27 -55 27 -81 -1z"/>
<path d="M4313 2116 c-35 -41 -5 -101 45 -90 34 8 52 30 46 57 -8 42 -65 62
-91 33z"/>
<path d="M665 1927 c-18 -10 -20 -70 -2 -85 28 -24 97 3 97 37 0 47 -51 73
-95 48z"/>
<path d="M4256 1915 c-17 -26 -17 -28 1 -54 26 -33 67 -37 88 -8 29 42 14 72
-42 83 -25 5 -33 1 -47 -21z"/>
<path d="M739 1742 c-32 -27 -34 -57 -2 -81 29 -24 41 -25 64 -8 30 23 32 55
5 82 -30 30 -37 31 -67 7z"/>
<path d="M4200 1739 c-18 -23 -19 -38 -8 -61 19 -40 92 -28 100 16 10 52 -62
87 -92 45z"/>
<path d="M4116 1573 c-33 -32 -19 -71 30 -87 24 -7 64 26 64 52 -1 50 -58 71
-94 35z"/>
<path d="M820 1567 c-21 -17 -24 -45 -6 -72 26 -39 96 -18 96 29 -1 48 -53 73
-90 43z"/>
<path d="M4002 1405 c-18 -21 -20 -29 -10 -50 6 -14 15 -26 20 -26 56 -9 88 8
88 45 0 25 -32 56 -58 56 -10 0 -28 -11 -40 -25z"/>
<path d="M938 1406 c-31 -23 -28 -78 5 -93 25 -12 52 -3 75 25 17 22 16 28
-13 57 -29 28 -42 30 -67 11z"/>
<path d="M3882 1257 c-33 -36 -11 -87 37 -87 39 0 54 15 54 49 0 37 -1 39 -41
50 -25 8 -34 5 -50 -12z"/>
<path d="M1089 1262 c-51 -6 -63 -83 -16 -101 28 -11 73 11 80 37 7 29 -32 68
-64 64z"/>
<path d="M3747 1119 c-40 -31 -21 -89 29 -89 30 0 68 36 60 57 -3 8 -6 18 -6
22 0 6 -43 31 -54 31 -2 0 -15 -9 -29 -21z"/>
<path d="M1200 1110 c-39 -39 -18 -92 35 -92 49 0 76 47 47 82 -24 29 -59 33
-82 10z"/>
<path d="M3598 1009 c-22 -12 -24 -71 -3 -89 15 -12 84 -6 86 8 5 46 3 57 -12
70 -23 20 -49 24 -71 11z"/>
<path d="M1356 985 c-11 -8 -16 -15 -12 -15 5 0 4 -6 -2 -13 -15 -17 16 -55
48 -60 38 -6 60 13 60 50 0 49 -52 70 -94 38z"/>
<path d="M1567 881 c-26 -49 -47 -93 -47 -98 0 -14 157 -86 170 -78 23 14 7
33 -45 55 -55 23 -62 33 -46 58 7 11 17 10 56 -8 31 -14 51 -18 57 -12 15 15
1 31 -43 49 -39 15 -46 27 -30 52 7 11 17 10 54 -9 44 -22 77 -22 77 0 0 8
-137 80 -152 80 -3 0 -26 -40 -51 -89z"/>
<path d="M3328 942 l-56 -27 13 -33 c14 -32 15 -35 15 -49 1 -27 17 -33 53
-18 46 19 73 19 80 1 7 -18 -34 -46 -71 -49 -26 -2 -45 -23 -35 -39 8 -14 56
-8 98 12 92 45 83 151 -12 137 -21 -3 -45 -8 -54 -12 -11 -4 -18 0 -21 13 -4
16 3 24 34 38 24 11 38 23 36 32 -5 24 -18 22 -80 -6z"/>
<path d="M3162 872 c-46 -18 -55 -48 -13 -46 18 1 27 -8 39 -35 9 -20 16 -40
18 -46 1 -5 9 -27 17 -48 15 -35 18 -37 39 -26 13 6 24 13 26 14 4 3 -28 83
-62 156 l-21 46 -43 -15z"/>
<path d="M1800 838 c-11 -12 -20 -26 -20 -31 0 -20 23 -48 65 -77 27 -19 42
-36 39 -44 -8 -20 -51 -10 -89 19 -26 19 -34 21 -48 10 -15 -11 -15 -13 6 -32
33 -31 63 -44 110 -47 51 -4 77 15 77 56 0 22 -10 35 -50 64 -52 38 -60 51
-35 60 18 7 75 -14 75 -27 0 -16 19 -9 30 11 9 17 5 22 -29 40 -53 27 -104 26
-131 -2z"/>
<path d="M2982 810 c-42 -26 -55 -54 -48 -107 8 -67 40 -102 93 -103 94 -1
136 77 90 167 -20 39 -35 50 -74 56 -20 3 -42 -2 -61 -13z m64 -38 c37 -24 46
-105 14 -122 -27 -14 -55 2 -68 39 -21 61 12 112 54 83z"/>
<path d="M1997 800 c-4 -17 0 -22 24 -27 16 -3 31 -9 34 -13 2 -4 -4 -42 -15
-86 -10 -43 -16 -82 -14 -86 3 -5 16 -8 29 -8 18 0 25 7 30 33 28 144 25 137
64 134 26 -1 36 2 39 14 3 15 -24 24 -126 44 -13 2 -32 7 -42 10 -12 4 -19 -1
-23 -15z"/>
<path d="M2773 772 c-31 -10 -65 -40 -58 -52 8 -13 42 -13 50 0 3 6 19 10 36
10 45 0 38 -35 -21 -103 -28 -32 -50 -63 -50 -68 0 -12 50 -11 127 2 51 9 63
15 63 30 0 21 -18 24 -68 10 -17 -5 -32 -7 -32 -5 0 3 13 22 29 42 37 46 45
85 23 112 -19 22 -65 32 -99 22z"/>
<path d="M2225 748 c-17 -81 -28 -198 -18 -198 4 0 40 -3 79 -6 73 -7 114 5
143 40 21 25 23 87 4 116 -30 45 -52 55 -158 65 -40 5 -45 3 -50 -17z m129
-39 c14 -7 29 -24 34 -38 20 -57 -25 -99 -92 -87 l-36 7 7 52 c3 29 6 58 6 65
0 15 48 16 81 1z"/>
<path d="M2606 638 c-28 -16 -7 -37 32 -33 20 1 42 3 49 4 6 1 10 9 9 18 -3
19 -63 26 -90 11z"/>
</g>
</svg>
